<svg id="Layer_1" data-name="Layer 1" xmlns="http://www.w3.org/2000/svg" viewBox="0 0 821.59 330.96"><rect x="0.6" width="679" height="74" style="fill:#ebf2ff"/><rect x="0.6" y="96.1" width="679" height="45" style="fill:#ebf2ff"/><text transform="translate(87.12 42.1)" style="font-size:16px;fill:#0b1a37;font-family:InspireTWDC-Medium, InspireTWDC;font-weight:500">Theme Builder</text><text transform="translate(246.5 42.1)" style="font-size:16px;fill:#0b1a37;font-family:InspireTWDC-Medium, InspireTWDC;font-weight:500"><tspan style="letter-spacing:0.0040283203125em">E</tspan><tspan x="8.99" y="0">xpo</tspan><tspan x="34.51" y="0" style="letter-spacing:0.019989013671875em">r</tspan><tspan x="40.7" y="0">ter</tspan></text><text transform="translate(366.95 42.1)" style="font-size:16px;fill:#0b1a37;font-family:InspireTWDC-Medium, InspireTWDC;font-weight:500">R<tspan x="10.14" y="0" style="letter-spacing:0.010009765625em">e</tspan><tspan x="18.67" y="0" style="letter-spacing:-0.000030517578125em">a</tspan><tspan x="26.62" y="0" style="letter-spacing:0.010986328125em">c</tspan><tspan x="34.22" y="0">t Components</tspan></text><text transform="translate(553.12 42.1)" style="font-size:16px;fill:#0b1a37;font-family:InspireTWDC-Medium, InspireTWDC;font-weight:500;letter-spacing:-0.011962890625em">F<tspan x="8.11" y="0" style="letter-spacing:-0.000030517578125em">igma </tspan><tspan x="46.59" y="0" style="letter-spacing:-0.006011962890625em">P</tspan><tspan x="55.98" y="0" style="letter-spacing:0.000030517578125em">lugin</tspan></text><polyline points="654.88 52.5 654.88 53.5 653.88 53.5" style="fill:none;stroke:#999;stroke-linejoin:round"/><line x1="651.87" y1="53.5" x2="527.89" y2="53.5" style="fill:none;stroke:#999;stroke-linejoin:round;stroke-dasharray:2.0158729553222656,2.0158729553222656"/><polyline points="526.88 53.5 525.88 53.5 525.88 52.5" style="fill:none;stroke:#999;stroke-linejoin:round"/><line x1="525.88" y1="50.43" x2="525.88" y2="22.53" style="fill:none;stroke:#999;stroke-linejoin:round;stroke-dasharray:2.066666603088379,2.066666603088379"/><polyline points="525.88 21.5 525.88 20.5 526.88 20.5" style="fill:none;stroke:#999;stroke-linejoin:round"/><line x1="528.9" y1="20.5" x2="652.87" y2="20.5" style="fill:none;stroke:#999;stroke-linejoin:round;stroke-dasharray:2.0158729553222656,2.0158729553222656"/><polyline points="653.88 20.5 654.88 20.5 654.88 21.5" style="fill:none;stroke:#999;stroke-linejoin:round"/><line x1="654.88" y1="23.57" x2="654.88" y2="51.47" style="fill:none;stroke:#999;stroke-linejoin:round;stroke-dasharray:2.066666603088379,2.066666603088379"/><g id="Page-1"><g id="MyID_logo_dark" data-name="MyID logo dark"><g id="Group"><path id="Combined-Shape" d="M315.69,112.62h2.82L323,123.23H323l4.41-10.61h2.83v14h-1.9V115.11h0l-4.72,11.52h-1.27l-4.73-11.52h0v11.52h-1.89Zm15.85,4.63h2.06l2.79,7.32h0l2.66-7.32H341l-4.45,11.4a10.74,10.74,0,0,1-.49,1.12,3.49,3.49,0,0,1-.61.86,2.49,2.49,0,0,1-.86.55,3.26,3.26,0,0,1-1.24.2,5.46,5.46,0,0,1-.8,0,2.65,2.65,0,0,1-.78-.21l.21-1.62a2.77,2.77,0,0,0,1.07.22,2,2,0,0,0,.7-.11,1.3,1.3,0,0,0,.5-.32,1.91,1.91,0,0,0,.35-.48q.14-.28.27-.63l.58-1.49Zm11.26,6.86v-8.59a6.41,6.41,0,0,0-.05-.88.69.69,0,0,0-.22-.46,1,1,0,0,0-.53-.2,7.16,7.16,0,0,0-.93,0v-.88c.18,0,5.21,0,5.39,0v.86a7.09,7.09,0,0,0-.92,0,.89.89,0,0,0-.51.2.74.74,0,0,0-.21.46,6.41,6.41,0,0,0-.05.88v8.59a5.15,5.15,0,0,0,.06.89.87.87,0,0,0,.23.52.94.94,0,0,0,.51.24,5.23,5.23,0,0,0,.89.06v.87c-.27,0-5.1,0-5.39,0v-.88a5.45,5.45,0,0,0,.9-.06,1,1,0,0,0,.53-.24.87.87,0,0,0,.24-.52A5.15,5.15,0,0,0,342.8,124.11Z" transform="translate(0 -1)" style="fill:#5c514d;fill-rule:evenodd"/><path id="Fill-705-Copy" d="M364.57,121.39a5.65,5.65,0,0,1-.06,1,4.27,4.27,0,0,1-.18.63c-.11.25-.22.45-.33.66a5.16,5.16,0,0,1-.92,1.13,7.69,7.69,0,0,1-3.93,1.54,10.4,10.4,0,0,1-2.94-.08l-.83-.18a2.2,2.2,0,0,1,0,.34,2.29,2.29,0,0,1-.08.28.47.47,0,0,1-.36.26,1,1,0,0,1-.6,0,.86.86,0,0,1-.47-.75c-.05-.27-.09-.73-.09-.73l-.43-.2a11.26,11.26,0,0,1-1.63-1c-.14-.1-.72-.59-.85-.71a4.83,4.83,0,0,1-.94-1.12,1.1,1.1,0,0,1-.1-1,2.81,2.81,0,0,1,1.42-1.1,12.28,12.28,0,0,1,2-.6l.58-.1,0,0a5.93,5.93,0,0,0,0-.7c0-.18.13-1.36.18-1.61a2.71,2.71,0,0,1,.23-.79.2.2,0,0,1,.28,0c.54.33.71,1.49.75,2.08,0,.36,0,.9,0,.9h1c.37,0,.78.07,1.16.13a8.22,8.22,0,0,1,2,.57,2,2,0,0,1,1,1,1,1,0,0,1-.09,1,1.36,1.36,0,0,1-1.05.69,1.67,1.67,0,0,1-.73-.16.13.13,0,0,1,0-.18l.37-.21a.66.66,0,0,0,.17-.12.42.42,0,0,0,.19-.32c0-.15-.18-.25-.34-.32a12.78,12.78,0,0,0-3-.58l-.68,0,.08,4,.59.1c.16,0,.79.08,1,.09a8.9,8.9,0,0,0,3.92-.64,4.25,4.25,0,0,0,1.35-1,2.77,2.77,0,0,0,.66-2.07,5.31,5.31,0,0,0-1.15-2.48,13.58,13.58,0,0,0-5.34-3.75,16.81,16.81,0,0,0-5.93-1.33,9.92,9.92,0,0,0-2.28.16,1.36,1.36,0,0,1-.25.07.78.78,0,0,0-.18.08l0,0,.07,0a3.24,3.24,0,0,0,.46.07.46.46,0,0,1,.29.18.17.17,0,0,1,0,.22c-.13.16-.63.13-.85.1s-.52-.11-.57-.31a1,1,0,0,1,.17-.68,1.65,1.65,0,0,1,1.1-.78,10.64,10.64,0,0,1,2.31-.36,13.6,13.6,0,0,1,4.5.66,19.46,19.46,0,0,1,4.83,2.23l1.27.94c.31.26.72.62,1,.91a9.33,9.33,0,0,1,1.62,2.12c.08.17.15.33.26.52a5.29,5.29,0,0,1,.21.57l.07.28A4.67,4.67,0,0,1,364.57,121.39Zm-10.8-.46s-.59,0-1,.09a10.58,10.58,0,0,0-2,.42c-.17.06-.51.2-.54.38a.59.59,0,0,0,.2.46c.07.08.48.47.59.57a10.75,10.75,0,0,0,2.15,1.3l.64.25s0-1.15,0-2.28c0-.6,0-1.19,0-1.19Z" transform="translate(0 -1)" style="fill:#309ddf;fill-rule:evenodd"/></g></g></g><polyline points="384.38 134.5 384.38 135.5 383.38 135.5" style="fill:none;stroke:#999;stroke-linejoin:round"/><line x1="381.39" y1="135.5" x2="298.63" y2="135.5" style="fill:none;stroke:#999;stroke-linejoin:round;stroke-dasharray:1.9941860437393188,1.9941860437393188"/><polyline points="297.63 135.5 296.63 135.5 296.63 134.5" style="fill:none;stroke:#999;stroke-linejoin:round"/><line x1="296.63" y1="132.43" x2="296.63" y2="104.53" style="fill:none;stroke:#999;stroke-linejoin:round;stroke-dasharray:2.066666603088379,2.066666603088379"/><polyline points="296.63 103.5 296.63 102.5 297.63 102.5" style="fill:none;stroke:#999;stroke-linejoin:round"/><line x1="299.63" y1="102.5" x2="382.38" y2="102.5" style="fill:none;stroke:#999;stroke-linejoin:round;stroke-dasharray:1.9941860437393188,1.9941860437393188"/><polyline points="383.38 102.5 384.38 102.5 384.38 103.5" style="fill:none;stroke:#999;stroke-linejoin:round"/><line x1="384.38" y1="105.57" x2="384.38" y2="133.47" style="fill:none;stroke:#999;stroke-linejoin:round;stroke-dasharray:2.066666603088379,2.066666603088379"/><circle cx="719.48" cy="234.16" r="9.5" style="fill:#143f8f"/><path d="M719.48,234.53a9.22,9.22,0,0,1-4.1-.78c-1-.51-1.57-1.09-1.57-1.74s.53-1.25,1.57-1.76a11.44,11.44,0,0,1,8.2,0c1,.51,1.57,1.09,1.57,1.76s-.52,1.23-1.57,1.74A9.22,9.22,0,0,1,719.48,234.53Zm0,3.15a10.45,10.45,0,0,1-4-.7c-1.13-.46-1.69-1-1.69-1.67v-1.57a1.31,1.31,0,0,0,.59,1.06,5.06,5.06,0,0,0,1.47.74,9.72,9.72,0,0,0,1.86.43,12.9,12.9,0,0,0,1.75.13,13.06,13.06,0,0,0,1.77-.13,10.85,10.85,0,0,0,1.85-.42,4.86,4.86,0,0,0,1.46-.73,1.33,1.33,0,0,0,.59-1.08v1.57c0,.65-.56,1.21-1.68,1.67A10.54,10.54,0,0,1,719.48,237.68Zm0,3.14a10.45,10.45,0,0,1-4-.69c-1.13-.46-1.69-1-1.69-1.67v-1.57a1.31,1.31,0,0,0,.59,1.06,5.06,5.06,0,0,0,1.47.74,10.54,10.54,0,0,0,1.86.43,12.9,12.9,0,0,0,1.75.13,13.06,13.06,0,0,0,1.77-.13,10.85,10.85,0,0,0,1.85-.42,4.86,4.86,0,0,0,1.46-.73,1.33,1.33,0,0,0,.59-1.08v1.57c0,.65-.56,1.21-1.68,1.67A10.54,10.54,0,0,1,719.48,240.82Z" transform="translate(0 -1)" style="fill:#fff"/><circle cx="719.48" cy="319.27" r="9.5" style="fill:#143f8f"/><path d="M717.49,325.38h-2.3a.74.74,0,0,1-.55-.24.75.75,0,0,1-.24-.55v-2.3a1.81,1.81,0,0,0,1-.45,1.28,1.28,0,0,0,.41-.95,1.26,1.26,0,0,0-.41-.95,1.68,1.68,0,0,0-1-.45v-2.3a.82.82,0,0,1,.79-.79h2.31a1.83,1.83,0,0,1,.52-.87,1.23,1.23,0,0,1,.89-.36,1.25,1.25,0,0,1,.9.36,1.83,1.83,0,0,1,.52.87h2.26a.75.75,0,0,1,.55.24.76.76,0,0,1,.23.55v2.26a1.72,1.72,0,0,1,.86.54,1.42,1.42,0,0,1,.33.92,1.23,1.23,0,0,1-.33.88,1.8,1.8,0,0,1-.86.5v2.3a.78.78,0,0,1-.23.55.75.75,0,0,1-.55.24h-2.3a1.62,1.62,0,0,0-.47-1,1.28,1.28,0,0,0-.93-.38,1.3,1.3,0,0,0-.94.38A1.61,1.61,0,0,0,717.49,325.38Zm-2.3-.79h1.7a2,2,0,0,1,.91-1.1,2.43,2.43,0,0,1,1.09-.3,2.39,2.39,0,0,1,1.08.3,2.06,2.06,0,0,1,.92,1.1h1.7v-3.07h.59a.6.6,0,0,0,.43-.17.62.62,0,0,0,.17-.44.61.61,0,0,0-.17-.43.6.6,0,0,0-.43-.17h-.59v-3.12h-3.08v-.63a.58.58,0,0,0-.6-.6.56.56,0,0,0-.43.17.58.58,0,0,0-.17.43v.63h-3.12v1.7a2.15,2.15,0,0,1,1,.78,2.05,2.05,0,0,1,.38,1.22,2.07,2.07,0,0,1-.38,1.22,2.22,2.22,0,0,1-1,.78Zm4.3-4.32Z" transform="translate(0 -1)" style="fill:#fff"/><circle cx="719.48" cy="262.53" r="9.5" style="fill:#143f8f"/><path d="M715,267.71a.73.73,0,0,1-.54-.24.75.75,0,0,1-.24-.54v-6.8a.78.78,0,0,1,.24-.55.73.73,0,0,1,.54-.24h3.67l.78.79h4.45a.82.82,0,0,1,.78.78v6a.82.82,0,0,1-.78.78Zm0-7.58v6.8h8.9v-6h-4.77l-.79-.78Zm0,0h0v.78h0v6h0Z" transform="translate(0 -1)" style="fill:#fff"/><circle cx="719.48" cy="290.9" r="9.5" style="fill:#143f8f"/><path d="M723.93,296.09H715a.73.73,0,0,1-.54-.24.75.75,0,0,1-.24-.55v-6.8a.75.75,0,0,1,.24-.55.72.72,0,0,1,.54-.23h8.9a.79.79,0,0,1,.78.78v6.8a.74.74,0,0,1-.23.55A.75.75,0,0,1,723.93,296.09ZM715,289.6v5.7h8.9v-5.7Z" transform="translate(0 -1)" style="fill:#fff"/><circle cx="72.12" cy="36.95" r="9.5" style="fill:#143f8f"/><path d="M76.56,42.14H67.67a.75.75,0,0,1-.55-.24.73.73,0,0,1-.23-.55v-6.8a.79.79,0,0,1,.78-.78h8.89a.73.73,0,0,1,.55.23.75.75,0,0,1,.24.55v6.8a.82.82,0,0,1-.79.79Zm-8.89-6.49v5.7h8.89v-5.7Z" transform="translate(0 -1)" style="fill:#fff"/><circle cx="231.12" cy="36.95" r="9.5" style="fill:#143f8f"/><path d="M235.56,42.14h-8.89a.75.75,0,0,1-.55-.24.73.73,0,0,1-.23-.55v-6.8a.79.79,0,0,1,.78-.78h8.89a.73.73,0,0,1,.55.23.75.75,0,0,1,.24.55v6.8a.82.82,0,0,1-.79.79Zm-8.89-6.49v5.7h8.89v-5.7Z" transform="translate(0 -1)" style="fill:#fff"/><circle cx="351.96" cy="36.95" r="9.5" style="fill:#85b0ff"/><path d="M347.51,42.14a.75.75,0,0,1-.55-.24.77.77,0,0,1-.23-.55v-6.8A.73.73,0,0,1,347,34a.75.75,0,0,1,.55-.24h3.66l.79.78h4.45a.75.75,0,0,1,.54.24.77.77,0,0,1,.24.55v6a.78.78,0,0,1-.24.55.75.75,0,0,1-.54.24Zm0-7.59v6.8h8.9v-6h-4.78l-.78-.79Zm0,0h0v.79h0v6h0Z" transform="translate(0 -1)" style="fill:#fff"/><circle cx="540.25" cy="36.95" r="9.5" style="fill:#b3b3b3"/><path d="M538.25,43.05H536a.78.78,0,0,1-.55-.23.75.75,0,0,1-.24-.55V40a1.74,1.74,0,0,0,1-.45,1.24,1.24,0,0,0,.41-1,1.23,1.23,0,0,0-.41-1,1.62,1.62,0,0,0-1-.45v-2.3a.74.74,0,0,1,.24-.55.75.75,0,0,1,.55-.24h2.31a1.92,1.92,0,0,1,.52-.88,1.29,1.29,0,0,1,.9-.35,1.26,1.26,0,0,1,.89.35,1.92,1.92,0,0,1,.52.88h2.26a.75.75,0,0,1,.55.24.74.74,0,0,1,.24.55v2.26a1.57,1.57,0,0,1,.85.54,1.36,1.36,0,0,1,.34.92,1.21,1.21,0,0,1-.34.88,1.85,1.85,0,0,1-.85.5v2.3a.75.75,0,0,1-.24.55.78.78,0,0,1-.55.23h-2.3a1.59,1.59,0,0,0-.46-1,1.31,1.31,0,0,0-.94-.39,1.27,1.27,0,0,0-.93.39A1.55,1.55,0,0,0,538.25,43.05Zm-2.3-.78h1.7a2,2,0,0,1,.91-1.1,2.13,2.13,0,0,1,2.18,0,2,2,0,0,1,.91,1.1h1.7V39.19h.59a.58.58,0,0,0,.6-.6.56.56,0,0,0-.17-.43.58.58,0,0,0-.43-.17h-.59V34.87h-3.07v-.63a.58.58,0,0,0-.17-.43.56.56,0,0,0-.43-.17.58.58,0,0,0-.6.6v.63H536v1.7a2,2,0,0,1,1,.78,2.06,2.06,0,0,1,.39,1.22,2,2,0,0,1-.39,1.21,2.08,2.08,0,0,1-1,.79Zm4.3-4.32Z" transform="translate(0 -1)" style="fill:#143f8f"/><rect x="0.28" y="164.3" width="679" height="74" style="fill:#ebf2ff"/><text transform="translate(337.12 206.1)" style="font-size:16px;fill:#0b1a37;font-family:InspireTWDC-Medium, InspireTWDC;font-weight:500">API</text><circle cx="323.88" cy="201" r="7" style="fill:#85b0ff"/><rect x="0.3" y="256.96" width="679" height="74" style="fill:#ebf2ff"/><path d="M110.42,280" transform="translate(0 -1)" style="fill:none;stroke:#999;stroke-miterlimit:10"/><rect x="0.38" width="26" height="74" style="fill:#5990f6"/><rect y="96.19" width="26" height="44.81" style="fill:#5990f6"/><rect y="164.3" width="26" height="74" style="fill:#5990f6"/><rect x="0.03" y="256.96" width="26" height="74" style="fill:#5990f6"/><circle cx="719.48" cy="205.78" r="9.5" style="fill:#143f8f"/><path d="M718,213.28l-.33-2a5.36,5.36,0,0,1-.65-.31,4.18,4.18,0,0,1-.6-.41l-1.92.88L713,208.73l1.76-1.28a1.66,1.66,0,0,1,0-.33c0-.13,0-.24,0-.34s0-.21,0-.33a1.57,1.57,0,0,1,0-.33L713,204.83l1.51-2.66,1.92.88a3.5,3.5,0,0,1,.6-.41,3.26,3.26,0,0,1,.65-.29l.33-2.07h3l.32,2.05a6.22,6.22,0,0,1,.66.3,2.7,2.7,0,0,1,.59.42l1.92-.88,1.51,2.66-1.75,1.25c0,.11,0,.23,0,.35s0,.24,0,.35,0,.22,0,.34,0,.24,0,.35l1.75,1.26-1.51,2.67-1.92-.88a4.68,4.68,0,0,1-.59.41,2.81,2.81,0,0,1-.66.31l-.32,2Zm1.49-4.38a2.12,2.12,0,1,0-1.49-.62A2,2,0,0,0,719.48,208.9Zm0-1a1.09,1.09,0,0,1-.8-.33,1.12,1.12,0,0,1,0-1.61,1.09,1.09,0,0,1,.8-.33,1.12,1.12,0,0,1,.81.33,1.15,1.15,0,0,1,0,1.61A1.12,1.12,0,0,1,719.48,207.92Zm0-1.14Zm-.71,5.53h1.43l.22-1.82a3.76,3.76,0,0,0,1-.41,4,4,0,0,0,.87-.66l1.72.74.65-1.17-1.53-1.12a5.17,5.17,0,0,0,.11-.54,3.31,3.31,0,0,0,0-.55,4.89,4.89,0,0,0,0-.54,2.86,2.86,0,0,0-.12-.55l1.53-1.12L724,203.4l-1.72.75a3.61,3.61,0,0,0-.85-.71,2.63,2.63,0,0,0-1-.36l-.22-1.82h-1.43l-.23,1.82a3.14,3.14,0,0,0-1,.39,3.54,3.54,0,0,0-.86.68l-1.72-.75-.65,1.17,1.53,1.12c0,.19-.08.37-.11.55a3.73,3.73,0,0,0,0,1.09c0,.18.07.36.11.54L714.28,209l.65,1.17,1.72-.74a4,4,0,0,0,.87.66,3.76,3.76,0,0,0,1,.41Z" transform="translate(0 -1)" style="fill:#fff"/><path d="M16.14,223.43a3.42,3.42,0,0,1-.27.7H14.61a2.59,2.59,0,0,0,.4-.74,2.86,2.86,0,0,0,.17-1,1.34,1.34,0,0,0-.2-.81.63.63,0,0,0-.54-.26.51.51,0,0,0-.31.11,1.56,1.56,0,0,0-.26.3,4.14,4.14,0,0,0-.24.43c-.08.16-.16.33-.25.49a4.07,4.07,0,0,1-.31.53,2.49,2.49,0,0,1-.4.46,1.82,1.82,0,0,1-.52.32,1.67,1.67,0,0,1-.65.12,1.55,1.55,0,0,1-1.31-.59,2.6,2.6,0,0,1-.47-1.66,3.87,3.87,0,0,1,.11-1,2.7,2.7,0,0,1,.24-.64h1.25a3,3,0,0,0-.34.65,2.66,2.66,0,0,0-.16.93,1.22,1.22,0,0,0,.16.71.46.46,0,0,0,.42.23.5.5,0,0,0,.29-.09,1.19,1.19,0,0,0,.23-.26,4.07,4.07,0,0,0,.21-.37c.06-.14.14-.29.21-.45s.24-.45.37-.65a2.33,2.33,0,0,1,.42-.51,1.58,1.58,0,0,1,.53-.35,1.92,1.92,0,0,1,.71-.12,1.85,1.85,0,0,1,.8.17,1.56,1.56,0,0,1,.6.48,2.35,2.35,0,0,1,.38.76,3.92,3.92,0,0,1,.13,1A3.64,3.64,0,0,1,16.14,223.43Z" transform="translate(0 -1)" style="fill:#fff"/><path d="M9.85,217.54v-4.28h1.08v2.83h1.38v-2.45h1.08v2.45h1.68v-2.83h1.08v4.28Z" transform="translate(0 -1)" style="fill:#fff"/><path d="M9.85,211v-2.43a3,3,0,0,1,.16-1,2.11,2.11,0,0,1,.43-.75,1.94,1.94,0,0,1,.64-.46,2.15,2.15,0,0,1,.8-.15,2.08,2.08,0,0,1,1.08.29,1.69,1.69,0,0,1,.7.85l2.49-1.81v1.61L14,208.63v.88h2.2V211Zm3-2.05a1.7,1.7,0,0,0-.23-1,.85.85,0,0,0-.76-.35.81.81,0,0,0-.74.35,1.89,1.89,0,0,0-.21,1v.6h1.94Z" transform="translate(0 -1)" style="fill:#fff"/><path d="M9.85,204.46v-1.53l4.29-1.61-4.29-1.6v-1.46l6.3,2.58v1.06Z" transform="translate(0 -1)" style="fill:#fff"/><path d="M16.15,194.78v1.45H9.85v-1.45Z" transform="translate(0 -1)" style="fill:#fff"/><path d="M16,190.5a3.09,3.09,0,0,1-.67,1.08,2.87,2.87,0,0,1-1,.65,4,4,0,0,1-2.65,0,2.8,2.8,0,0,1-1-.66,3,3,0,0,1-.67-1.08A3.83,3.83,0,0,1,9.72,189a4.25,4.25,0,0,1,.13-1.1,4,4,0,0,1,.28-.83h1.35a3.88,3.88,0,0,0-.42.79,2.8,2.8,0,0,0-.18,1,2,2,0,0,0,.56,1.5A2.17,2.17,0,0,0,13,191a1.91,1.91,0,0,0,2.1-2.07,2.75,2.75,0,0,0-.17-1,3.71,3.71,0,0,0-.4-.77h1.31a3.37,3.37,0,0,1,.3.82,4.57,4.57,0,0,1,.13,1.08A4.29,4.29,0,0,1,16,190.5Z" transform="translate(0 -1)" style="fill:#fff"/><path d="M9.85,184.76v-4.29h1.08v2.84h1.38v-2.46h1.08v2.46h1.68v-2.84h1.08v4.29Z" transform="translate(0 -1)" style="fill:#fff"/><path d="M10.67,131v-1l6.3-2.65v1.5l-1,.4v2.58l1,.41v1.45Zm4.21-1.31-2.23.87,2.23.88Z" transform="translate(0 -1)" style="fill:#fff"/><path d="M17,124a2.39,2.39,0,0,1-.46.88,2,2,0,0,1-.78.56,2.91,2.91,0,0,1-1.12.2H10.67v-1.45h3.72a1.72,1.72,0,0,0,1.2-.33,1.35,1.35,0,0,0,.34-1,1.21,1.21,0,0,0-.34-.92,1.73,1.73,0,0,0-1.2-.32H10.67v-1.45h3.92a2.87,2.87,0,0,1,1.11.19,2.09,2.09,0,0,1,.79.57,2.45,2.45,0,0,1,.46.86A4.51,4.51,0,0,1,17,124Z" transform="translate(0 -1)" style="fill:#fff"/><path d="M11.78,116.21v1.92H10.67v-5.29h1.11v1.92H17v1.45Z" transform="translate(0 -1)" style="fill:#fff"/><path d="M10.67,110.82v-1.45h2.4v-2.65h-2.4v-1.44H17v1.44H14.23v2.65H17v1.45Z" transform="translate(0 -1)" style="fill:#fff"/><path d="M9.88,308.41v-1.84a5.58,5.58,0,0,1,.23-1.73,3.4,3.4,0,0,1,.65-1.21,2.59,2.59,0,0,1,1-.7A3.5,3.5,0,0,1,13,302.7a3.42,3.42,0,0,1,1.27.23,2.49,2.49,0,0,1,1,.7,3.25,3.25,0,0,1,.65,1.21,5.56,5.56,0,0,1,.24,1.73v1.84Zm5.22-1.69a2.92,2.92,0,0,0-.53-1.91,1.91,1.91,0,0,0-1.54-.63,1.92,1.92,0,0,0-1.55.63,2.92,2.92,0,0,0-.53,1.91V307H15.1Z" transform="translate(0 -1)" style="fill:#fff"/><path d="M9.88,298.31v-1l6.3-2.65v1.5l-1,.4v2.58l1,.41V301ZM14.09,297l-2.23.87,2.23.88Z" transform="translate(0 -1)" style="fill:#fff"/><path d="M11,292v1.92H9.88v-5.29H11v1.92h5.19V292Z" transform="translate(0 -1)" style="fill:#fff"/><path d="M9.88,285.13v-1l6.3-2.65V283l-1,.39V286l1,.4v1.46Zm4.21-1.3-2.23.86,2.23.88Z" transform="translate(0 -1)" style="fill:#fff"/><path d="M16.53,65.73v1.45h-6.3V65.73Z" transform="translate(0 -1)" style="fill:#fff"/><path d="M12.64,61.72h3.89v1.36h-6.3V61.92l3.95-3.11H10.23V57.45h6.3v1.16Z" transform="translate(0 -1)" style="fill:#fff"/><path d="M11.35,53.51v1.92H10.23V50.15h1.12v1.91h5.18v1.45Z" transform="translate(0 -1)" style="fill:#fff"/><path d="M10.23,48.12V43.84h1.08v2.83h1.38V44.21h1.08v2.46h1.68V43.84h1.08v4.28Z" transform="translate(0 -1)" style="fill:#fff"/><path d="M10.23,41.54V39.11a3,3,0,0,1,.16-1,2.11,2.11,0,0,1,.43-.75,1.69,1.69,0,0,1,.64-.46,2.16,2.16,0,0,1,.81-.15,2,2,0,0,1,1.07.29,1.65,1.65,0,0,1,.7.85L16.53,36v1.6l-2.19,1.57v.88h2.19v1.45Zm3-2a1.7,1.7,0,0,0-.24-1,.81.81,0,0,0-.75-.35.77.77,0,0,0-.74.35,1.79,1.79,0,0,0-.22,1v.6h1.95Z" transform="translate(0 -1)" style="fill:#fff"/><path d="M10.23,34.1V29.91h1.08v2.74h1.56V30.19h1.06v2.46h2.6V34.1Z" transform="translate(0 -1)" style="fill:#fff"/><path d="M10.23,26.08v-1l6.3-2.65V24l-1,.4v2.58l1,.41v1.46Zm4.21-1.31-2.23.87,2.23.88Z" transform="translate(0 -1)" style="fill:#fff"/><path d="M16.42,18.85a2.82,2.82,0,0,1-1.71,1.73,4,4,0,0,1-1.33.22,3.73,3.73,0,0,1-1.32-.23,3.05,3.05,0,0,1-1-.67,3.14,3.14,0,0,1-.67-1.07,4.08,4.08,0,0,1-.24-1.45,4.69,4.69,0,0,1,.12-1.1,3.81,3.81,0,0,1,.28-.83h1.35a3.57,3.57,0,0,0-.41.78,2.89,2.89,0,0,0-.18,1.05,2,2,0,0,0,.55,1.49,2.19,2.19,0,0,0,1.57.54,1.92,1.92,0,0,0,2.11-2.06,3,3,0,0,0-.17-1,3.49,3.49,0,0,0-.41-.77h1.32a3.87,3.87,0,0,1,.29.82,4,4,0,0,1,.13,1.08A4.29,4.29,0,0,1,16.42,18.85Z" transform="translate(0 -1)" style="fill:#fff"/><path d="M10.23,13.1V8.82h1.08v2.83h1.38V9.2h1.08v2.45h1.68V8.82h1.08V13.1Z" transform="translate(0 -1)" style="fill:#fff"/><circle cx="323.48" cy="200.78" r="9.5" style="fill:#143f8f"/><path d="M322,208.28l-.32-2a4.24,4.24,0,0,1-.65-.31,4.18,4.18,0,0,1-.6-.41l-1.92.88L317,203.73l1.75-1.28a3,3,0,0,1,0-.33c0-.13,0-.24,0-.34s0-.21,0-.33a2.71,2.71,0,0,1,0-.33L317,199.83l1.51-2.66,1.92.88a3.5,3.5,0,0,1,.6-.41,2.83,2.83,0,0,1,.65-.29l.32-2.07h3l.33,2.05c.2.08.42.18.65.3a2.54,2.54,0,0,1,.6.42l1.92-.88,1.51,2.66-1.76,1.25a2,2,0,0,1,0,.35c0,.13,0,.24,0,.35s0,.22,0,.34a2,2,0,0,1,0,.35l1.76,1.26-1.51,2.67-1.92-.88a4.83,4.83,0,0,1-.6.41,2.94,2.94,0,0,1-.65.31l-.33,2Zm1.5-4.38a2.12,2.12,0,1,0-1.5-.62A2,2,0,0,0,323.48,203.9Zm0-1a1.13,1.13,0,1,1,.8-.33A1.1,1.1,0,0,1,323.48,202.92Zm0-1.14Zm-.72,5.53h1.43l.23-1.82a3.7,3.7,0,0,0,1-.41,4,4,0,0,0,.87-.66l1.73.74.65-1.17-1.53-1.12a5.12,5.12,0,0,0,.1-.54,3.31,3.31,0,0,0,.05-.55,4.9,4.9,0,0,0,0-.54,3.82,3.82,0,0,0-.11-.55l1.53-1.12L328,198.4l-1.73.75a3.77,3.77,0,0,0-.84-.71,2.69,2.69,0,0,0-1-.36l-.23-1.82h-1.43l-.23,1.82a3.22,3.22,0,0,0-1,.39,3.49,3.49,0,0,0-.85.68l-1.72-.75-.65,1.17,1.52,1.12c0,.19-.07.37-.1.55a3.27,3.27,0,0,0,0,.54,3.31,3.31,0,0,0,0,.55c0,.18.06.36.1.54L318.28,204l.65,1.17,1.72-.74a4,4,0,0,0,.87.66,3.83,3.83,0,0,0,1,.41Z" transform="translate(0 -1)" style="fill:#fff"/><text transform="translate(194.12 302.1)" style="font-size:16px;fill:#0b1a37;font-family:InspireTWDC-Medium, InspireTWDC;font-weight:500">Theme DB</text><circle cx="180.71" cy="296.24" r="9.5" style="fill:#143f8f"/><path d="M180.71,296.61a9.3,9.3,0,0,1-4.11-.77q-1.56-.76-1.56-1.74c0-.67.52-1.25,1.56-1.76a11.47,11.47,0,0,1,8.21,0c1,.51,1.57,1.09,1.57,1.76s-.53,1.23-1.57,1.74A9.26,9.26,0,0,1,180.71,296.61Zm0,3.15a10.51,10.51,0,0,1-4-.69c-1.12-.46-1.68-1-1.68-1.67v-1.57a1.29,1.29,0,0,0,.59,1.06,4.87,4.87,0,0,0,1.46.74,11,11,0,0,0,1.86.43,14.9,14.9,0,0,0,1.76.13,14.75,14.75,0,0,0,1.76-.13,10.63,10.63,0,0,0,1.85-.42,5,5,0,0,0,1.47-.73,1.33,1.33,0,0,0,.59-1.08v1.57c0,.65-.57,1.21-1.69,1.67A10.45,10.45,0,0,1,180.71,299.76Zm0,3.15a10.51,10.51,0,0,1-4-.69c-1.12-.46-1.68-1-1.68-1.67V299a1.29,1.29,0,0,0,.59,1.06,4.87,4.87,0,0,0,1.46.74,10.08,10.08,0,0,0,1.86.42,11.13,11.13,0,0,0,3.52,0,9.79,9.79,0,0,0,1.85-.41,5.31,5.31,0,0,0,1.47-.73,1.33,1.33,0,0,0,.59-1.08v1.57c0,.65-.57,1.21-1.69,1.67A10.45,10.45,0,0,1,180.71,302.91Z" transform="translate(0 -1)" style="fill:#fff"/><text transform="translate(342.12 302.1)" style="font-size:16px;fill:#0b1a37;font-family:InspireTWDC-Medium, InspireTWDC;font-weight:500">Git<tspan x="21.02" y="0" style="letter-spacing:0.015045166015625em">L</tspan><tspan x="29.63" y="0" style="letter-spacing:-0.000030517578125em">ab</tspan></text><circle cx="328.71" cy="296.24" r="9.5" style="fill:#143f8f"/><text transform="translate(456.78 301.94)" style="font-size:16px;fill:#0b1a37;font-family:InspireTWDC-Medium, InspireTWDC;font-weight:500;letter-spacing:-0.011962890625em">F<tspan x="8.11" y="0" style="letter-spacing:-0.000030517578125em">igma</tspan></text><polyline points="506.38 312.35 506.38 313.35 505.38 313.35" style="fill:none;stroke:#999;stroke-linejoin:round"/><line x1="503.36" y1="313.34" x2="431.56" y2="313.34" style="fill:none;stroke:#999;stroke-linejoin:round;stroke-dasharray:2.022552728652954,2.022552728652954"/><polyline points="430.55 313.35 429.55 313.35 429.55 312.35" style="fill:none;stroke:#999;stroke-linejoin:round"/><line x1="429.55" y1="310.28" x2="429.55" y2="282.38" style="fill:none;stroke:#999;stroke-linejoin:round;stroke-dasharray:2.066666603088379,2.066666603088379"/><polyline points="429.55 281.35 429.55 280.35 430.55 280.35" style="fill:none;stroke:#999;stroke-linejoin:round"/><line x1="432.57" y1="280.34" x2="504.37" y2="280.34" style="fill:none;stroke:#999;stroke-linejoin:round;stroke-dasharray:2.022552728652954,2.022552728652954"/><polyline points="505.38 280.35 506.38 280.35 506.38 281.35" style="fill:none;stroke:#999;stroke-linejoin:round"/><line x1="506.38" y1="283.41" x2="506.38" y2="311.31" style="fill:none;stroke:#999;stroke-linejoin:round;stroke-dasharray:2.066666603088379,2.066666603088379"/><circle cx="443.91" cy="296.8" r="9.5" style="fill:#b3b3b3"/><path d="M741.21,211a4,4,0,0,1-.9-.37v-1.15a3.73,3.73,0,0,0,1,.5,4.05,4.05,0,0,0,1.19.19,2,2,0,0,0,1.29-.35,1.23,1.23,0,0,0,.44-1,1,1,0,0,0-.15-.54,1.65,1.65,0,0,0-.4-.44,4.14,4.14,0,0,0-.6-.38l-.72-.36c-.25-.12-.49-.25-.73-.39a2.89,2.89,0,0,1-.65-.5,2.34,2.34,0,0,1-.45-.66,2,2,0,0,1-.18-.88,2,2,0,0,1,.71-1.59,2.94,2.94,0,0,1,2-.61,4.61,4.61,0,0,1,1.16.14,3.8,3.8,0,0,1,.86.32V204a4.25,4.25,0,0,0-.88-.43,3.08,3.08,0,0,0-1.11-.2,1.86,1.86,0,0,0-1.11.29,1,1,0,0,0-.39.87.89.89,0,0,0,.14.51,1.4,1.4,0,0,0,.36.41,3.73,3.73,0,0,0,.53.34l.62.31a8.66,8.66,0,0,1,.86.45,3,3,0,0,1,.71.54,2.55,2.55,0,0,1,.49.69,2.19,2.19,0,0,1,.18.92,2.22,2.22,0,0,1-.21,1,2,2,0,0,1-.59.77,2.61,2.61,0,0,1-.92.49,3.86,3.86,0,0,1-1.22.19A4.9,4.9,0,0,1,741.21,211Z" transform="translate(0 -1)" style="fill:#fff"/><path d="M748.31,210.92a2.66,2.66,0,0,1-.95-.6,2.59,2.59,0,0,1-.59-.94,3.45,3.45,0,0,1-.2-1.23,3.53,3.53,0,0,1,.19-1.21,2.69,2.69,0,0,1,.57-.94,2.42,2.42,0,0,1,.87-.6,2.84,2.84,0,0,1,1.15-.22,2.68,2.68,0,0,1,1,.19,2.28,2.28,0,0,1,.8.53,2.33,2.33,0,0,1,.51.81,3,3,0,0,1,.18,1c0,.11,0,.23,0,.35s0,.21,0,.24h-4.09a2.21,2.21,0,0,0,.51,1.38,1.78,1.78,0,0,0,1.39.5,3.13,3.13,0,0,0,1.92-.59v.91a2.81,2.81,0,0,1-.94.44,4.44,4.44,0,0,1-1.11.14A3.41,3.41,0,0,1,748.31,210.92Zm2.43-3.34a1.54,1.54,0,0,0-.35-1.12,1.55,1.55,0,0,0-2.14,0,1.81,1.81,0,0,0-.46,1.12Z" transform="translate(0 -1)" style="fill:#fff"/><path d="M753.19,206.67c0-.31,0-.57,0-.81s0-.42,0-.54h1.08c0,.06,0,.16.07.32s0,.32.07.5a2.79,2.79,0,0,1,.63-.66,1.43,1.43,0,0,1,.89-.3,2,2,0,0,1,.46,0l.29.11v1l-.33-.13a2,2,0,0,0-.52-.06,1.66,1.66,0,0,0-.76.17,1.63,1.63,0,0,0-.62.49V211h-1.18Z" transform="translate(0 -1)" style="fill:#fff"/><path d="M756.83,205.32h1.22l1.57,3.89,1.54-3.89h1.21L759.91,211h-.61Z" transform="translate(0 -1)" style="fill:#fff"/><path d="M763.38,204.23a.59.59,0,0,1-.22-.49.63.63,0,0,1,.22-.51.81.81,0,0,1,.54-.19.83.83,0,0,1,.54.19.63.63,0,0,1,.23.51.59.59,0,0,1-.23.49.87.87,0,0,1-.54.17A.85.85,0,0,1,763.38,204.23Zm0,1.09h1.17V211h-1.17Z" transform="translate(0 -1)" style="fill:#fff"/><path d="M767.65,210.92a2.69,2.69,0,0,1-.92-.61,2.61,2.61,0,0,1-.6-.94,3.3,3.3,0,0,1-.21-1.21,3.26,3.26,0,0,1,.22-1.24,2.61,2.61,0,0,1,.6-.94,2.54,2.54,0,0,1,.94-.59,3.36,3.36,0,0,1,1.22-.21,3.89,3.89,0,0,1,.93.11,3.13,3.13,0,0,1,.68.26v1a3.44,3.44,0,0,0-.64-.33,2.35,2.35,0,0,0-.86-.14,1.73,1.73,0,0,0-1.39.55,2.17,2.17,0,0,0-.47,1.49,2.21,2.21,0,0,0,.48,1.51,1.69,1.69,0,0,0,1.36.55,2.83,2.83,0,0,0,.86-.13,2.57,2.57,0,0,0,.66-.34v1a2.92,2.92,0,0,1-.74.28,3.76,3.76,0,0,1-.92.1A3.29,3.29,0,0,1,767.65,210.92Z" transform="translate(0 -1)" style="fill:#fff"/><path d="M773.23,210.92a2.59,2.59,0,0,1-1.54-1.54,3.69,3.69,0,0,1-.2-1.23,3.53,3.53,0,0,1,.2-1.21,2.67,2.67,0,0,1,.56-.94,2.55,2.55,0,0,1,.88-.6,2.79,2.79,0,0,1,1.14-.22,2.64,2.64,0,0,1,1,.19,2.2,2.2,0,0,1,.8.53,2.35,2.35,0,0,1,.52.81,3,3,0,0,1,.18,1c0,.11,0,.23,0,.35s0,.21,0,.24h-4.09a2.16,2.16,0,0,0,.52,1.38,1.75,1.75,0,0,0,1.39.5,3.17,3.17,0,0,0,1.92-.59v.91a2.91,2.91,0,0,1-.94.44,4.56,4.56,0,0,1-1.11.14A3.47,3.47,0,0,1,773.23,210.92Zm2.44-3.34a1.59,1.59,0,0,0-.36-1.12,1.53,1.53,0,0,0-2.13,0,1.82,1.82,0,0,0-.47,1.12Z" transform="translate(0 -1)" style="fill:#fff"/><path d="M740.7,231H743a6.54,6.54,0,0,1,2.09.3,4.2,4.2,0,0,1,1.5.85,3.41,3.41,0,0,1,.9,1.33,4.74,4.74,0,0,1,.3,1.72,4.81,4.81,0,0,1-.3,1.74,3.53,3.53,0,0,1-.9,1.32,4.19,4.19,0,0,1-1.5.84,6.54,6.54,0,0,1-2.09.3H740.7Zm2.18,7.44a3.79,3.79,0,0,0,2.68-.84,3.67,3.67,0,0,0,0-4.84,3.94,3.94,0,0,0-2.68-.8H742v6.48Z" transform="translate(0 -1)" style="fill:#fff"/><path d="M749.25,239a1.73,1.73,0,0,1-.5-1.31,1.56,1.56,0,0,1,.16-.7,1.68,1.68,0,0,1,.46-.57,2.45,2.45,0,0,1,.74-.38,3.78,3.78,0,0,1,2.07,0v-.48a1.18,1.18,0,0,0-.3-.87,1.36,1.36,0,0,0-1-.3,3.05,3.05,0,0,0-1,.16c-.29.11-.51.2-.65.27V234a3.72,3.72,0,0,1,.71-.24,4.66,4.66,0,0,1,1.19-.13,2.55,2.55,0,0,1,1.68.47,1.75,1.75,0,0,1,.58,1.42v2.41a1.23,1.23,0,0,0,.12.62.42.42,0,0,0,.34.19.43.43,0,0,0,.17,0l.12,0v.68a.75.75,0,0,1-.18.08l-.23,0a1.53,1.53,0,0,1-1-.15.91.91,0,0,1-.39-.64,2,2,0,0,1-.69.63,2.12,2.12,0,0,1-1,.21A1.9,1.9,0,0,1,749.25,239Zm2.44-.6a1.36,1.36,0,0,0,.49-.55v-1.09a3,3,0,0,0-.38-.1,3.78,3.78,0,0,0-.51,0,1.42,1.42,0,0,0-1,.3,1,1,0,0,0-.32.74.93.93,0,0,0,.26.7.94.94,0,0,0,.72.25A1.26,1.26,0,0,0,751.69,238.43Z" transform="translate(0 -1)" style="fill:#fff"/><path d="M755.82,239.12a1.82,1.82,0,0,1-.45-1.38V234.6h-1v-.86h1v-1.27l1.18-.22v1.49H758v.86h-1.49v3.1a1,1,0,0,0,.21.72.91.91,0,0,0,.67.2,2.13,2.13,0,0,0,.37,0,1.77,1.77,0,0,0,.29-.07v.88a2.21,2.21,0,0,1-.38.11,4.32,4.32,0,0,1-.56,0A1.82,1.82,0,0,1,755.82,239.12Z" transform="translate(0 -1)" style="fill:#fff"/><path d="M759.37,239a1.7,1.7,0,0,1-.5-1.31,1.56,1.56,0,0,1,.16-.7,1.68,1.68,0,0,1,.46-.57,2.39,2.39,0,0,1,.73-.38,3.25,3.25,0,0,1,1-.13,3.3,3.3,0,0,1,1.11.16v-.48a1.18,1.18,0,0,0-.3-.87,1.37,1.37,0,0,0-1-.3,3,3,0,0,0-1,.16,6.56,6.56,0,0,0-.65.27V234a3.56,3.56,0,0,1,.7-.24,4.74,4.74,0,0,1,1.2-.13,2.59,2.59,0,0,1,1.68.47,1.75,1.75,0,0,1,.57,1.42v2.41a1.12,1.12,0,0,0,.13.62.4.4,0,0,0,.34.19.47.47,0,0,0,.17,0l.12,0v.68a.75.75,0,0,1-.18.08l-.23,0a1.42,1.42,0,0,1-.31,0,1.36,1.36,0,0,1-.71-.18,1,1,0,0,1-.4-.64,2,2,0,0,1-.69.63,2.09,2.09,0,0,1-1,.21A1.89,1.89,0,0,1,759.37,239Zm2.44-.6a1.44,1.44,0,0,0,.49-.55v-1.09a2.74,2.74,0,0,0-.39-.1,3.63,3.63,0,0,0-.5,0,1.41,1.41,0,0,0-1,.3,1,1,0,0,0-.32.74.92.92,0,0,0,.25.7,1,1,0,0,0,.72.25A1.3,1.3,0,0,0,761.81,238.43Z" transform="translate(0 -1)" style="fill:#fff"/><path d="M766.21,238.73c0,.11,0,.21-.05.3a1.08,1.08,0,0,1,0,.21,1.57,1.57,0,0,1,0,.16h-1c0-.06,0-.23,0-.51s0-.57,0-.9v-7.23h1.17v3.51a3.12,3.12,0,0,1,.78-.49,2.64,2.64,0,0,1,1-.18,2.51,2.51,0,0,1,1,.21,2.23,2.23,0,0,1,.78.61,2.78,2.78,0,0,1,.48.92,3.7,3.7,0,0,1,.17,1.18,3.82,3.82,0,0,1-.18,1.2,3,3,0,0,1-.53.95,2.3,2.3,0,0,1-.81.64,2.5,2.5,0,0,1-1.07.23A2.31,2.31,0,0,1,766.21,238.73Zm2.75-.64a2.57,2.57,0,0,0,.44-1.59A2.21,2.21,0,0,0,769,235a1.55,1.55,0,0,0-1.23-.49,1.65,1.65,0,0,0-.77.18,3.51,3.51,0,0,0-.62.45V238l.19.2a1.69,1.69,0,0,0,.29.22,1.87,1.87,0,0,0,.4.2,1.6,1.6,0,0,0,.51.08A1.48,1.48,0,0,0,769,238.09Z" transform="translate(0 -1)" style="fill:#fff"/><path d="M772,239a1.7,1.7,0,0,1-.5-1.31,1.56,1.56,0,0,1,.16-.7,1.68,1.68,0,0,1,.46-.57,2.39,2.39,0,0,1,.73-.38,3.25,3.25,0,0,1,1-.13,3.3,3.3,0,0,1,1.11.16v-.48a1.18,1.18,0,0,0-.3-.87,1.37,1.37,0,0,0-1-.3,3,3,0,0,0-1,.16,6.56,6.56,0,0,0-.65.27V234a3.56,3.56,0,0,1,.7-.24,4.74,4.74,0,0,1,1.2-.13,2.59,2.59,0,0,1,1.68.47,1.75,1.75,0,0,1,.57,1.42v2.41a1.12,1.12,0,0,0,.13.62.4.4,0,0,0,.34.19.47.47,0,0,0,.17,0l.12,0v.68a.75.75,0,0,1-.18.08l-.23,0a1.42,1.42,0,0,1-.31,0,1.36,1.36,0,0,1-.71-.18,1,1,0,0,1-.4-.64,2,2,0,0,1-.69.63,2.09,2.09,0,0,1-1,.21A1.89,1.89,0,0,1,772,239Zm2.44-.6a1.44,1.44,0,0,0,.49-.55v-1.09a2.74,2.74,0,0,0-.39-.1,3.63,3.63,0,0,0-.5,0,1.41,1.41,0,0,0-1,.3,1,1,0,0,0-.32.74.92.92,0,0,0,.25.7,1,1,0,0,0,.72.25A1.3,1.3,0,0,0,774.47,238.43Z" transform="translate(0 -1)" style="fill:#fff"/><path d="M778.32,239.42a3.1,3.1,0,0,1-.76-.29v-1a3.13,3.13,0,0,0,.85.39,3,3,0,0,0,.9.15,1.47,1.47,0,0,0,.83-.2.67.67,0,0,0,.29-.59.57.57,0,0,0-.11-.36,1.16,1.16,0,0,0-.31-.26,3,3,0,0,0-.44-.2l-.51-.2a3.06,3.06,0,0,1-1-.67,1.58,1.58,0,0,1-.22-1.69,1.48,1.48,0,0,1,.42-.51,2,2,0,0,1,.64-.32,2.65,2.65,0,0,1,.81-.11,3.4,3.4,0,0,1,1,.11,2.73,2.73,0,0,1,.65.26v.92a2.73,2.73,0,0,0-.71-.32,3,3,0,0,0-.84-.12,1.13,1.13,0,0,0-.69.18.59.59,0,0,0-.24.5.58.58,0,0,0,.08.33,1.06,1.06,0,0,0,.24.23,3.09,3.09,0,0,0,.37.2l.48.2.62.3a2.15,2.15,0,0,1,.52.35,1.57,1.57,0,0,1,.34.47,1.39,1.39,0,0,1,.13.63,1.52,1.52,0,0,1-.59,1.25,2.64,2.64,0,0,1-1.64.46A3.65,3.65,0,0,1,778.32,239.42Z" transform="translate(0 -1)" style="fill:#fff"/><path d="M784.25,239.34a2.52,2.52,0,0,1-1.54-1.54,3.47,3.47,0,0,1-.2-1.24,3.61,3.61,0,0,1,.19-1.21,2.74,2.74,0,0,1,.57-.93,2.58,2.58,0,0,1,.87-.61,3,3,0,0,1,1.15-.21,2.87,2.87,0,0,1,1,.18,2.43,2.43,0,0,1,.8.53,2.37,2.37,0,0,1,.51.82,2.89,2.89,0,0,1,.18,1.05c0,.11,0,.23,0,.35s0,.2,0,.23h-4.09a2.26,2.26,0,0,0,.51,1.39,1.82,1.82,0,0,0,1.39.5,3.19,3.19,0,0,0,1.92-.59v.9a2.63,2.63,0,0,1-.94.44,4,4,0,0,1-1.11.15A3.41,3.41,0,0,1,784.25,239.34Zm2.43-3.34a1.54,1.54,0,0,0-.35-1.12,1.55,1.55,0,0,0-2.14,0,1.81,1.81,0,0,0-.46,1.12Z" transform="translate(0 -1)" style="fill:#fff"/><path d="M740.7,259.4h2.55a3.42,3.42,0,0,1,2.35.72,2.46,2.46,0,0,1,.81,1.95,2.65,2.65,0,0,1-.21,1.07,2.25,2.25,0,0,1-.62.84,2.93,2.93,0,0,1-1,.56,4.38,4.38,0,0,1-1.36.19H742v3.07H740.7Zm2.41,4.37a2.23,2.23,0,0,0,1.49-.43,1.56,1.56,0,0,0,.51-1.27c0-1.14-.65-1.71-2-1.71H742v3.41Z" transform="translate(0 -1)" style="fill:#fff"/><path d="M747.42,267.43a1.7,1.7,0,0,1-.51-1.31,1.66,1.66,0,0,1,.63-1.27,2.39,2.39,0,0,1,.73-.38,3.25,3.25,0,0,1,1-.13,3.34,3.34,0,0,1,1.11.16V264a1.18,1.18,0,0,0-.3-.87,1.39,1.39,0,0,0-1-.3,3,3,0,0,0-1,.16,5.65,5.65,0,0,0-.65.27v-.91a3.56,3.56,0,0,1,.7-.24,4.71,4.71,0,0,1,1.19-.13,2.55,2.55,0,0,1,1.68.47,1.72,1.72,0,0,1,.58,1.42v2.41a1.12,1.12,0,0,0,.13.62.39.39,0,0,0,.34.19.47.47,0,0,0,.17,0l.12,0v.68a.75.75,0,0,1-.18.08l-.23.05a1.42,1.42,0,0,1-.31,0,1.34,1.34,0,0,1-.71-.18.93.93,0,0,1-.4-.64,2,2,0,0,1-.69.63,2.09,2.09,0,0,1-1,.21A1.88,1.88,0,0,1,747.42,267.43Zm2.43-.6a1.46,1.46,0,0,0,.5-.55v-1.09l-.39-.1a3.63,3.63,0,0,0-.5,0,1.41,1.41,0,0,0-1,.3.94.94,0,0,0-.32.74.91.91,0,0,0,.25.7,1,1,0,0,0,.72.25A1.24,1.24,0,0,0,749.85,266.83Z" transform="translate(0 -1)" style="fill:#fff"/><path d="M754.65,267.73a2.62,2.62,0,0,1-.92-.6,2.68,2.68,0,0,1-.59-.94,3.36,3.36,0,0,1-.21-1.22,3.41,3.41,0,0,1,.21-1.23,2.82,2.82,0,0,1,.61-.95,2.79,2.79,0,0,1,.93-.59,3.4,3.4,0,0,1,1.22-.2,4,4,0,0,1,.94.11,2.6,2.6,0,0,1,.67.26v1a2.92,2.92,0,0,0-.64-.33,2.31,2.31,0,0,0-.86-.15,1.73,1.73,0,0,0-1.39.55,2.25,2.25,0,0,0-.47,1.49,2.22,2.22,0,0,0,.48,1.52A1.74,1.74,0,0,0,756,267a2.59,2.59,0,0,0,.86-.13,2.64,2.64,0,0,0,.65-.33v1a2.85,2.85,0,0,1-.73.29,4.42,4.42,0,0,1-.93.1A3.09,3.09,0,0,1,754.65,267.73Z" transform="translate(0 -1)" style="fill:#fff"/><path d="M763.76,262.14l-2.1,2.24,2.28,3.42h-1.37l-1.66-2.61-.89,1v1.65h-1.18v-8.64H760v5.74l2.39-2.76Z" transform="translate(0 -1)" style="fill:#fff"/><path d="M764.94,267.43a1.7,1.7,0,0,1-.51-1.31,1.66,1.66,0,0,1,.63-1.27,2.39,2.39,0,0,1,.73-.38,3.25,3.25,0,0,1,1-.13,3.34,3.34,0,0,1,1.11.16V264a1.18,1.18,0,0,0-.3-.87,1.39,1.39,0,0,0-1-.3,3,3,0,0,0-1,.16,5.65,5.65,0,0,0-.65.27v-.91a3.56,3.56,0,0,1,.7-.24,4.71,4.71,0,0,1,1.19-.13,2.55,2.55,0,0,1,1.68.47,1.72,1.72,0,0,1,.58,1.42v2.41a1.12,1.12,0,0,0,.13.62.39.39,0,0,0,.34.19.47.47,0,0,0,.17,0l.12,0v.68a.75.75,0,0,1-.18.08l-.23.05a1.42,1.42,0,0,1-.31,0,1.34,1.34,0,0,1-.71-.18.93.93,0,0,1-.4-.64,2,2,0,0,1-.69.63,2.09,2.09,0,0,1-1,.21A1.88,1.88,0,0,1,764.94,267.43Zm2.43-.6a1.46,1.46,0,0,0,.5-.55v-1.09l-.39-.1a3.63,3.63,0,0,0-.5,0,1.41,1.41,0,0,0-1,.3.94.94,0,0,0-.32.74.91.91,0,0,0,.25.7,1,1,0,0,0,.72.25A1.24,1.24,0,0,0,767.37,266.83Z" transform="translate(0 -1)" style="fill:#fff"/><path d="M772.31,270.68a5.63,5.63,0,0,1-.62-.14,4.23,4.23,0,0,1-.51-.19,1.57,1.57,0,0,1-.37-.22v-1a3.12,3.12,0,0,0,.35.22c.14.08.3.15.48.23a4.39,4.39,0,0,0,.58.18,2.87,2.87,0,0,0,.67.07,1.64,1.64,0,0,0,1.83-1.87v-.65a2.36,2.36,0,0,1-1.67.6,2.7,2.7,0,0,1-1.1-.21,2.15,2.15,0,0,1-.81-.58,2.64,2.64,0,0,1-.51-.9,3.94,3.94,0,0,1-.17-1.17,3.85,3.85,0,0,1,.18-1.19,3,3,0,0,1,.53-1,2.42,2.42,0,0,1,.81-.64,2.38,2.38,0,0,1,1.08-.23,2.22,2.22,0,0,1,1,.21,3.18,3.18,0,0,1,.76.59c0-.16,0-.29.06-.4a2.61,2.61,0,0,1,.06-.26h1c0,.07,0,.23,0,.46s0,.53,0,.87v4.47a3.21,3.21,0,0,1-.2,1.2,2.46,2.46,0,0,1-.58.88,2.53,2.53,0,0,1-.92.53,3.78,3.78,0,0,1-1.2.18A5.06,5.06,0,0,1,772.31,270.68Zm1.8-3.85a2.21,2.21,0,0,0,.61-.47V263.6l-.19-.2a1.48,1.48,0,0,0-.3-.23,1.74,1.74,0,0,0-.41-.2,1.7,1.7,0,0,0-.53-.07,1.42,1.42,0,0,0-1.19.57,2.45,2.45,0,0,0-.44,1.56,2.26,2.26,0,0,0,.41,1.47,1.45,1.45,0,0,0,1.21.51A1.84,1.84,0,0,0,774.11,266.83Z" transform="translate(0 -1)" style="fill:#fff"/><path d="M778.86,267.74a2.61,2.61,0,0,1-.94-.6,2.7,2.7,0,0,1-.6-.94,3.71,3.71,0,0,1-.2-1.24,3.38,3.38,0,0,1,.2-1.21,2.72,2.72,0,0,1,.56-.93,2.62,2.62,0,0,1,.88-.61,3,3,0,0,1,1.14-.21,2.84,2.84,0,0,1,1,.18,2.43,2.43,0,0,1,.8.53,2.37,2.37,0,0,1,.51.82,2.89,2.89,0,0,1,.18,1.05c0,.11,0,.23,0,.35s0,.2,0,.23h-4.09a2.26,2.26,0,0,0,.51,1.39,1.82,1.82,0,0,0,1.4.5,3.24,3.24,0,0,0,1.92-.59v.9a3,3,0,0,1-.95.45,4.44,4.44,0,0,1-1.11.14A3.45,3.45,0,0,1,778.86,267.74Zm2.43-3.34a1.54,1.54,0,0,0-.35-1.12,1.55,1.55,0,0,0-2.14,0,1.87,1.87,0,0,0-.46,1.12Z" transform="translate(0 -1)" style="fill:#fff"/><path d="M789.16,269.54a9.1,9.1,0,0,1-.83-1.17,8.93,8.93,0,0,1-.67-1.35,9.77,9.77,0,0,1-.43-1.48,8.51,8.51,0,0,1-.15-1.6,8.4,8.4,0,0,1,.15-1.59,10.25,10.25,0,0,1,.43-1.49,10.54,10.54,0,0,1,.66-1.35,10.09,10.09,0,0,1,.83-1.19h1.23a8,8,0,0,0-.76,1,8.68,8.68,0,0,0-.67,1.29,10,10,0,0,0-.49,1.55,8.4,8.4,0,0,0-.18,1.76,8.17,8.17,0,0,0,.18,1.75,9.27,9.27,0,0,0,.49,1.54,8.33,8.33,0,0,0,.67,1.3,8,8,0,0,0,.75,1Z" transform="translate(0 -1)" style="fill:#fff"/><path d="M793,261.78v6h-1.23v-8.46h.76l5.18,6.14V259.4H799v8.45h-.77Z" transform="translate(0 -1)" style="fill:#fff"/><path d="M801,259.4h2.55a3.42,3.42,0,0,1,2.35.72,2.46,2.46,0,0,1,.81,1.95,2.65,2.65,0,0,1-.21,1.07,2.14,2.14,0,0,1-.62.84,2.93,2.93,0,0,1-1,.56,4.34,4.34,0,0,1-1.36.19h-1.25v3.07H801Zm2.41,4.37a2.27,2.27,0,0,0,1.5-.43,1.56,1.56,0,0,0,.51-1.27c0-1.14-.66-1.71-2-1.71h-1.18v3.41Z" transform="translate(0 -1)" style="fill:#fff"/><path d="M808.07,259.34h.74l3.67,5.09,3.66-5.09h.75v8.46h-1.24v-5.9L812.7,266h-.45l-3-4.07v5.9h-1.22Z" transform="translate(0 -1)" style="fill:#fff"/><path d="M818.29,269.54a8,8,0,0,0,.75-1,8.58,8.58,0,0,0,1.16-2.84,7.57,7.57,0,0,0,.19-1.75,7.78,7.78,0,0,0-.19-1.76,9.05,9.05,0,0,0-.48-1.55,8.7,8.7,0,0,0-.68-1.29,9,9,0,0,0-.75-1h1.21a11.51,11.51,0,0,1,.84,1.19,8.43,8.43,0,0,1,.66,1.35,8.23,8.23,0,0,1,.43,1.49,7.66,7.66,0,0,1,.16,1.59,7.75,7.75,0,0,1-.16,1.6A7.91,7.91,0,0,1,821,267a8,8,0,0,1-.66,1.35,10.26,10.26,0,0,1-.84,1.17Z" transform="translate(0 -1)" style="fill:#fff"/><path d="M747.9,296.19l-2.38-6.3-2.37,6.3h-.68l-2.71-8.45h1.29l1.84,6.15,2.3-6.18h.67l2.33,6.19,1.9-6.16h1.24l-2.76,8.45Z" transform="translate(0 -1)" style="fill:#fff"/><path d="M753.61,296.08a2.61,2.61,0,0,1-.94-.6,2.66,2.66,0,0,1-.6-1,3.82,3.82,0,0,1,0-2.44,2.72,2.72,0,0,1,.56-.93,2.58,2.58,0,0,1,.88-.61,3,3,0,0,1,1.14-.21,2.84,2.84,0,0,1,1,.18,2.2,2.2,0,0,1,.8.53,2.45,2.45,0,0,1,.52.81,3,3,0,0,1,.18,1.06c0,.11,0,.22,0,.35s0,.2,0,.23h-4.09a2.21,2.21,0,0,0,.52,1.39,1.79,1.79,0,0,0,1.39.5,3.24,3.24,0,0,0,1.92-.59v.9a2.71,2.71,0,0,1-.94.44,4.13,4.13,0,0,1-1.11.15A3.47,3.47,0,0,1,753.61,296.08Zm2.44-3.35a1.58,1.58,0,0,0-.36-1.11,1.53,1.53,0,0,0-2.13,0,1.82,1.82,0,0,0-.47,1.11Z" transform="translate(0 -1)" style="fill:#fff"/><path d="M759.48,295.47c0,.11,0,.21-.05.29a1.65,1.65,0,0,1,0,.21c0,.08,0,.13,0,.17h-1c0-.06,0-.23,0-.51s0-.58,0-.9V287.5h1.18V291a2.86,2.86,0,0,1,.78-.49,2.6,2.6,0,0,1,1-.18,2.51,2.51,0,0,1,1,.21,2.3,2.3,0,0,1,.78.61,2.68,2.68,0,0,1,.48.92,4,4,0,0,1,.17,1.18,3.59,3.59,0,0,1-.19,1.2,2.82,2.82,0,0,1-.52,1,2.42,2.42,0,0,1-.81.64,2.5,2.5,0,0,1-1.07.22A2.3,2.3,0,0,1,759.48,295.47Zm2.75-.64a2.57,2.57,0,0,0,.44-1.59,2.25,2.25,0,0,0-.44-1.51,1.55,1.55,0,0,0-1.23-.5,1.63,1.63,0,0,0-.77.19,2.81,2.81,0,0,0-.62.45v2.83l.19.19a1.73,1.73,0,0,0,.29.23,1.66,1.66,0,0,0,.4.19,1.36,1.36,0,0,0,.51.09A1.48,1.48,0,0,0,762.23,294.83Z" transform="translate(0 -1)" style="fill:#fff"/><path d="M769.48,295.51a2.92,2.92,0,0,1-.89-2.33v-5.44h1.28v5.31a2.33,2.33,0,0,0,.52,1.69,2.08,2.08,0,0,0,1.58.54,2,2,0,0,0,1.53-.54,2.33,2.33,0,0,0,.52-1.69v-5.31h1.27v5.44a2.94,2.94,0,0,1-.89,2.33,4.23,4.23,0,0,1-4.92,0Z" transform="translate(0 -1)" style="fill:#fff"/><path d="M778.58,296.14h-1.27v-8.4h1.27Z" transform="translate(0 -1)" style="fill:#fff"/><path d="M740.7,315.73h2.55a3.47,3.47,0,0,1,2.35.71,2.48,2.48,0,0,1,.81,1.95,2.7,2.7,0,0,1-.21,1.08,2.42,2.42,0,0,1-.62.84,2.91,2.91,0,0,1-1,.55,4.37,4.37,0,0,1-1.36.2H742v3.07H740.7Zm2.41,4.37a2.28,2.28,0,0,0,1.49-.43,1.58,1.58,0,0,0,.51-1.28c0-1.13-.65-1.7-2-1.7H742v3.41Z" transform="translate(0 -1)" style="fill:#fff"/><path d="M748,323.81a2,2,0,0,1-.41-1.4v-6.92h1.18v6.94a1,1,0,0,0,.2.67.84.84,0,0,0,.64.21,2.22,2.22,0,0,0,.37,0,1.19,1.19,0,0,0,.23,0v.86l-.32.08a2.61,2.61,0,0,1-.59.06A1.75,1.75,0,0,1,748,323.81Z" transform="translate(0 -1)" style="fill:#fff"/><path d="M752.34,324.16a1.59,1.59,0,0,1-.61-.37,1.62,1.62,0,0,1-.42-.64,2.76,2.76,0,0,1-.15-1v-3.72h1.17V322a1.41,1.41,0,0,0,.3,1,1.13,1.13,0,0,0,.81.28,1.54,1.54,0,0,0,.81-.22,2.38,2.38,0,0,0,.67-.6v-4h1.17v4.33c0,.33,0,.62,0,.86s0,.4,0,.47H755.1a2.79,2.79,0,0,1-.08-.29,3.67,3.67,0,0,1-.08-.59,3.5,3.5,0,0,1-.77.71,1.82,1.82,0,0,1-1.09.31A2.25,2.25,0,0,1,752.34,324.16Z" transform="translate(0 -1)" style="fill:#fff"/><path d="M759.26,327a5.2,5.2,0,0,1-.62-.13,3.13,3.13,0,0,1-.52-.2,2.43,2.43,0,0,1-.37-.21v-1l.35.21a3.59,3.59,0,0,0,.48.23,4.55,4.55,0,0,0,.59.18,2.81,2.81,0,0,0,.67.07,1.63,1.63,0,0,0,1.82-1.87v-.65a2.36,2.36,0,0,1-1.67.6,2.73,2.73,0,0,1-1.1-.2,2.27,2.27,0,0,1-.81-.58,2.51,2.51,0,0,1-.5-.91,3.57,3.57,0,0,1-.18-1.16,3.64,3.64,0,0,1,.19-1.2,3,3,0,0,1,.52-1,2.34,2.34,0,0,1,.82-.64,2.38,2.38,0,0,1,1.08-.24,2.08,2.08,0,0,1,1,.22,3,3,0,0,1,.76.59c0-.16,0-.3.06-.41a2.15,2.15,0,0,0,.06-.25h1c0,.07,0,.22,0,.46s0,.52,0,.87v4.46a3.23,3.23,0,0,1-.21,1.21,2.22,2.22,0,0,1-.58.87,2.41,2.41,0,0,1-.92.54,3.78,3.78,0,0,1-1.2.18A3.71,3.71,0,0,1,759.26,327Zm1.79-3.85a2.18,2.18,0,0,0,.61-.46v-2.76l-.19-.2a2.47,2.47,0,0,0-.29-.24,2.22,2.22,0,0,0-.41-.19,1.8,1.8,0,0,0-.54-.08,1.42,1.42,0,0,0-1.19.57,2.53,2.53,0,0,0-.44,1.57,2.32,2.32,0,0,0,.41,1.47,1.46,1.46,0,0,0,1.21.51A1.72,1.72,0,0,0,761.05,323.15Z" transform="translate(0 -1)" style="fill:#fff"/><path d="M764.54,317.37a.61.61,0,0,1-.21-.49.66.66,0,0,1,.21-.51.84.84,0,0,1,.54-.18.85.85,0,0,1,.55.18.64.64,0,0,1,.22.51.59.59,0,0,1-.22.49.9.9,0,0,1-.55.17A.89.89,0,0,1,764.54,317.37Zm0,1.1h1.16v5.66h-1.16Z" transform="translate(0 -1)" style="fill:#fff"/><path d="M767.43,319.81q0-.51,0-.87a3.85,3.85,0,0,0,0-.47h1.08a1.66,1.66,0,0,1,.07.3,3.68,3.68,0,0,1,.07.57,4.81,4.81,0,0,1,.78-.71,2,2,0,0,1,1.11-.31,2.24,2.24,0,0,1,.73.12,1.6,1.6,0,0,1,1,1,2.75,2.75,0,0,1,.16,1v3.7h-1.18v-3.55a1.34,1.34,0,0,0-.31-1,1.15,1.15,0,0,0-.79-.28,1.58,1.58,0,0,0-.81.22,2.52,2.52,0,0,0-.67.6v4h-1.18Z" transform="translate(0 -1)" style="fill:#fff"/><rect x="709.73" y="22.62" width="18" height="18" style="fill:#85b0ff"/><rect x="709.73" y="44.99" width="18" height="18" style="fill:#b3b3b3"/><rect x="709.88" width="18" height="18" style="fill:#143f8f"/><path d="M746.54,6.76h-4.09v-1h5.4v.43l-3.68,8H743Z" transform="translate(0 -1)" style="fill:#fff"/><path d="M749.28,14.27a2.37,2.37,0,0,1-.87-.31v-1a2.88,2.88,0,0,0,.84.36,3.56,3.56,0,0,0,.91.12,2.71,2.71,0,0,0,.82-.12,2.17,2.17,0,0,0,.64-.34,1.52,1.52,0,0,0,.42-.55,1.72,1.72,0,0,0,.15-.74,1.53,1.53,0,0,0-.53-1.27,2.23,2.23,0,0,0-1.48-.43l-.43,0-.42.06-.37.08-.26.08.24-4.4h4.16v1h-3.2l-.15,2.38a1.43,1.43,0,0,1,.38-.07l.4,0a2.94,2.94,0,0,1,2.07.69,2.4,2.4,0,0,1,.75,1.88,2.56,2.56,0,0,1-.22,1.07,2.41,2.41,0,0,1-.61.87,2.86,2.86,0,0,1-1,.58,3.68,3.68,0,0,1-1.27.22A5.66,5.66,0,0,1,749.28,14.27Z" transform="translate(0 -1)" style="fill:#fff"/><path d="M755.44,10.35a2.1,2.1,0,0,1-.65-.49,2.3,2.3,0,0,1-.43-.75,2.6,2.6,0,0,1-.16-.93,2.71,2.71,0,0,1,.16-.95,2.3,2.3,0,0,1,.43-.75,2,2,0,0,1,.65-.5,1.91,1.91,0,0,1,1.62,0,2.1,2.1,0,0,1,.65.5,2.5,2.5,0,0,1,.43.75,3,3,0,0,1,.15.95,2.83,2.83,0,0,1-.15.93,2.5,2.5,0,0,1-.43.75,2.23,2.23,0,0,1-.65.49,1.91,1.91,0,0,1-1.62,0ZM757,9.26a1.86,1.86,0,0,0,.29-1.08,1.89,1.89,0,0,0-.29-1.1.89.89,0,0,0-.77-.42.92.92,0,0,0-.78.42,1.89,1.89,0,0,0-.28,1.1,1.86,1.86,0,0,0,.28,1.08.92.92,0,0,0,.78.42A.89.89,0,0,0,757,9.26Zm3.72-3.63h1l-4.18,8.74h-1Zm.52,8.4a1.87,1.87,0,0,1-.64-.47,2.2,2.2,0,0,1-.43-.75,3.15,3.15,0,0,1,0-1.92,2.3,2.3,0,0,1,.43-.75,2.06,2.06,0,0,1,.64-.49,1.91,1.91,0,0,1,.81-.18,2.17,2.17,0,0,1,.81.16,1.94,1.94,0,0,1,.66.47,2.2,2.2,0,0,1,.43.75,3,3,0,0,1,.16,1,2.94,2.94,0,0,1-.16,1,2.2,2.2,0,0,1-.43.75,1.94,1.94,0,0,1-.66.47,2,2,0,0,1-.81.17A2.06,2.06,0,0,1,761.26,14Zm1.59-1.1a1.84,1.84,0,0,0,.29-1.09,1.82,1.82,0,0,0-.29-1.1.89.89,0,0,0-.78-.42.87.87,0,0,0-.76.42,1.82,1.82,0,0,0-.29,1.1,1.84,1.84,0,0,0,.29,1.09.87.87,0,0,0,.76.42A.89.89,0,0,0,762.85,12.93Z" transform="translate(0 -1)" style="fill:#fff"/><path d="M768.64,10.12h3.09v1h-3.09Z" transform="translate(0 -1)" style="fill:#fff"/><path d="M777.33,6.72h-1.42V5.8h2.56v8.4h-1.14Z" transform="translate(0 -1)" style="fill:#fff"/><path d="M781.93,14.06a2.83,2.83,0,0,1-1-.87,4.22,4.22,0,0,1-.61-1.37,6.81,6.81,0,0,1-.23-1.82,6.81,6.81,0,0,1,.23-1.82A4.37,4.37,0,0,1,781,6.8a2.83,2.83,0,0,1,1-.87,2.67,2.67,0,0,1,2.46,0,2.83,2.83,0,0,1,1,.87A4.38,4.38,0,0,1,786,8.18a6.83,6.83,0,0,1,.22,1.82,6.7,6.7,0,0,1-.22,1.81,4.38,4.38,0,0,1-.62,1.38,2.83,2.83,0,0,1-1,.87,2.67,2.67,0,0,1-2.46,0Zm2.55-1.57A4.88,4.88,0,0,0,785,10a5,5,0,0,0-.5-2.5,1.45,1.45,0,0,0-2.64,0,5.07,5.07,0,0,0-.49,2.5,5,5,0,0,0,.49,2.49,1.45,1.45,0,0,0,2.64,0Z" transform="translate(0 -1)" style="fill:#fff"/><path d="M789.08,14.06a2.71,2.71,0,0,1-1-.87,4.22,4.22,0,0,1-.62-1.37,6.83,6.83,0,0,1-.22-1.82,6.83,6.83,0,0,1,.22-1.82,4.38,4.38,0,0,1,.62-1.38,2.71,2.71,0,0,1,1-.87,2.67,2.67,0,0,1,2.46,0,2.83,2.83,0,0,1,1,.87,4.17,4.17,0,0,1,.62,1.38,6.81,6.81,0,0,1,.23,1.82,6.68,6.68,0,0,1-.23,1.81,4.17,4.17,0,0,1-.62,1.38,2.83,2.83,0,0,1-1,.87,2.67,2.67,0,0,1-2.46,0Zm2.56-1.57a5,5,0,0,0,.49-2.49,5.07,5.07,0,0,0-.49-2.5,1.53,1.53,0,0,0-1.33-.85A1.5,1.5,0,0,0,789,7.5a5,5,0,0,0-.5,2.5,4.88,4.88,0,0,0,.5,2.49,1.5,1.5,0,0,0,1.31.85A1.53,1.53,0,0,0,791.64,12.49Z" transform="translate(0 -1)" style="fill:#fff"/><path d="M795.6,10.35a2.23,2.23,0,0,1-.65-.49,2.5,2.5,0,0,1-.43-.75,2.83,2.83,0,0,1-.15-.93,3,3,0,0,1,.15-.95,2.5,2.5,0,0,1,.43-.75,2.1,2.1,0,0,1,.65-.5,1.86,1.86,0,0,1,.82-.18,1.8,1.8,0,0,1,.8.18,2,2,0,0,1,.65.5,2.3,2.3,0,0,1,.43.75,2.71,2.71,0,0,1,.16.95,2.6,2.6,0,0,1-.16.93,2.3,2.3,0,0,1-.43.75,2.1,2.1,0,0,1-.65.49,1.8,1.8,0,0,1-.8.18A1.86,1.86,0,0,1,795.6,10.35Zm1.59-1.09a1.86,1.86,0,0,0,.28-1.08,1.89,1.89,0,0,0-.28-1.1.93.93,0,0,0-1.55,0,1.89,1.89,0,0,0-.29,1.1,1.86,1.86,0,0,0,.29,1.08.93.93,0,0,0,1.55,0Zm3.72-3.63h1l-4.17,8.74h-1Zm.52,8.4a1.9,1.9,0,0,1-.65-.47,2.38,2.38,0,0,1-.43-.75,3.15,3.15,0,0,1,0-1.92,2.5,2.5,0,0,1,.43-.75,2.1,2.1,0,0,1,.65-.49,1.85,1.85,0,0,1,.81-.18,2.17,2.17,0,0,1,.81.16,1.9,1.9,0,0,1,.65.47,2,2,0,0,1,.43.75,2.78,2.78,0,0,1,.16,1,2.7,2.7,0,0,1-.16,1,2,2,0,0,1-.43.75,1.9,1.9,0,0,1-.65.47,2,2,0,0,1-1.62,0Zm1.59-1.1a1.92,1.92,0,0,0,.29-1.09,1.89,1.89,0,0,0-.29-1.1.93.93,0,0,0-1.55,0,1.89,1.89,0,0,0-.29,1.1,1.92,1.92,0,0,0,.29,1.09.93.93,0,0,0,1.55,0Z" transform="translate(0 -1)" style="fill:#fff"/><path d="M743.58,36.89a2.3,2.3,0,0,1-.87-.31v-1a2.88,2.88,0,0,0,.84.36,3.56,3.56,0,0,0,.91.12,2.71,2.71,0,0,0,.82-.12,2.17,2.17,0,0,0,.64-.34,1.52,1.52,0,0,0,.42-.55,1.72,1.72,0,0,0,.15-.74A1.54,1.54,0,0,0,746,33a2.29,2.29,0,0,0-1.48-.43l-.43,0-.42.06-.37.08-.26.08.24-4.4h4.16v1h-3.2l-.15,2.38a2,2,0,0,1,.38-.07l.4,0a2.94,2.94,0,0,1,2.07.69,2.4,2.4,0,0,1,.75,1.88,2.61,2.61,0,0,1-.22,1.08,2.37,2.37,0,0,1-.61.86,2.86,2.86,0,0,1-1,.58,3.46,3.46,0,0,1-1.27.22A5.66,5.66,0,0,1,743.58,36.89Z" transform="translate(0 -1)" style="fill:#fff"/><path d="M750.51,36.68a2.71,2.71,0,0,1-1-.87,4.22,4.22,0,0,1-.62-1.37,7.64,7.64,0,0,1,0-3.64,4.38,4.38,0,0,1,.62-1.38,2.71,2.71,0,0,1,1-.87,2.67,2.67,0,0,1,2.46,0,2.83,2.83,0,0,1,1,.87,4.39,4.39,0,0,1,.63,1.38,7.26,7.26,0,0,1,.22,1.82,7.12,7.12,0,0,1-.22,1.81,4.39,4.39,0,0,1-.63,1.38,2.83,2.83,0,0,1-1,.87,2.67,2.67,0,0,1-2.46,0Zm2.56-1.57a5,5,0,0,0,.5-2.49,5.06,5.06,0,0,0-.5-2.5,1.51,1.51,0,0,0-1.33-.85,1.5,1.5,0,0,0-1.31.85,5.06,5.06,0,0,0-.5,2.5,5,5,0,0,0,.5,2.49,1.48,1.48,0,0,0,1.31.85A1.5,1.5,0,0,0,753.07,35.11Z" transform="translate(0 -1)" style="fill:#fff"/><path d="M757,33a2,2,0,0,1-.64-.49,2.32,2.32,0,0,1-.44-.75,2.79,2.79,0,0,1-.15-.93,2.85,2.85,0,0,1,.15-.94,2.27,2.27,0,0,1,.44-.76,2.06,2.06,0,0,1,.64-.5,1.86,1.86,0,0,1,.82-.18,1.77,1.77,0,0,1,.8.18,2,2,0,0,1,.65.5,2.09,2.09,0,0,1,.43.76,2.61,2.61,0,0,1,.16.94,2.56,2.56,0,0,1-.16.93,2.13,2.13,0,0,1-.43.75,2,2,0,0,1-.65.49,1.77,1.77,0,0,1-.8.18A1.86,1.86,0,0,1,757,33Zm1.59-1.09a1.84,1.84,0,0,0,.29-1.08,1.91,1.91,0,0,0-.29-1.1.94.94,0,0,0-1.55,0,1.91,1.91,0,0,0-.29,1.1,1.84,1.84,0,0,0,.29,1.08.93.93,0,0,0,1.55,0Zm3.72-3.63h1L759.17,37h-1Zm.52,8.4a1.9,1.9,0,0,1-.65-.47,2.14,2.14,0,0,1-.42-.74,2.8,2.8,0,0,1-.16-1,2.61,2.61,0,0,1,.16-.94,2.09,2.09,0,0,1,.42-.75,2,2,0,0,1,.65-.5,1.85,1.85,0,0,1,.81-.18,2,2,0,0,1,.81.17,1.75,1.75,0,0,1,.65.46,2.32,2.32,0,0,1,.44.75,3.31,3.31,0,0,1,0,2,2.17,2.17,0,0,1-.44.74,1.9,1.9,0,0,1-.65.47,2,2,0,0,1-1.62,0Zm1.59-1.1a2.21,2.21,0,0,0,0-2.19.94.94,0,0,0-1.55,0,2.21,2.21,0,0,0,0,2.19.93.93,0,0,0,1.55,0Z" transform="translate(0 -1)" style="fill:#fff"/><path d="M744.57,59.24h-1.28v-8.4h1.28Z" transform="translate(0 -1)" style="fill:#fff"/><path d="M747.56,59.16a2.07,2.07,0,0,1-.78-.59,2.43,2.43,0,0,1-.5-.91,3.65,3.65,0,0,1-.18-1.18,3.71,3.71,0,0,1,.19-1.22,2.8,2.8,0,0,1,.53-1,2.34,2.34,0,0,1,.82-.64,2.5,2.5,0,0,1,1.07-.23,2.12,2.12,0,0,1,.95.19,2.57,2.57,0,0,1,.7.5V50.6h1.18v7.21c0,.34,0,.64,0,.91s0,.45,0,.52h-1c0-.05,0-.12,0-.19s0-.13,0-.21,0-.16,0-.26a2.53,2.53,0,0,1-.8.58,2.57,2.57,0,0,1-1.08.21A2.48,2.48,0,0,1,747.56,59.16Zm2.17-.86a2.14,2.14,0,0,0,.63-.49V55a2.06,2.06,0,0,0-.21-.21,1.46,1.46,0,0,0-.3-.22,1.22,1.22,0,0,0-.4-.18,1.59,1.59,0,0,0-.5-.08,1.43,1.43,0,0,0-1.22.57,2.54,2.54,0,0,0-.43,1.56,2.37,2.37,0,0,0,.42,1.53,1.45,1.45,0,0,0,1.2.51A1.62,1.62,0,0,0,749.73,58.3Z" transform="translate(0 -1)" style="fill:#fff"/><path d="M754.51,59.18a2.73,2.73,0,0,1-.94-.61,2.51,2.51,0,0,1-.59-.94,3.45,3.45,0,0,1-.2-1.23,3.57,3.57,0,0,1,.19-1.21,2.51,2.51,0,0,1,.57-.93,2.33,2.33,0,0,1,.87-.61,3,3,0,0,1,1.15-.22,2.68,2.68,0,0,1,1,.19,2.16,2.16,0,0,1,.79.53,2.21,2.21,0,0,1,.52.81,3,3,0,0,1,.18,1c0,.12,0,.23,0,.36s0,.2,0,.23H754a2.21,2.21,0,0,0,.52,1.38,1.77,1.77,0,0,0,1.39.51,3.14,3.14,0,0,0,1.92-.6v.91a2.63,2.63,0,0,1-.94.44,4.13,4.13,0,0,1-1.11.15A3.7,3.7,0,0,1,754.51,59.18ZM757,55.83a1.53,1.53,0,0,0-.35-1.11,1.52,1.52,0,0,0-2.14,0,1.81,1.81,0,0,0-.46,1.11Z" transform="translate(0 -1)" style="fill:#fff"/><path d="M759.63,58.86a1.8,1.8,0,0,1-.35-2,1.71,1.71,0,0,1,.47-.57,2.19,2.19,0,0,1,.73-.38,3.54,3.54,0,0,1,2.07,0v-.48a1.16,1.16,0,0,0-.3-.87,1.36,1.36,0,0,0-1-.31,3,3,0,0,0-1,.17,3.58,3.58,0,0,0-.64.27V53.8a2.93,2.93,0,0,1,.7-.23,4.68,4.68,0,0,1,1.19-.14,2.55,2.55,0,0,1,1.68.48,1.71,1.71,0,0,1,.58,1.42v2.41a1.19,1.19,0,0,0,.12.61.41.41,0,0,0,.35.2.38.38,0,0,0,.16,0,.33.33,0,0,0,.12-.05v.69a.51.51,0,0,1-.18.08l-.22,0-.32,0a1.33,1.33,0,0,1-.7-.18.9.9,0,0,1-.4-.63,2,2,0,0,1-.69.63,2.09,2.09,0,0,1-1,.21A1.84,1.84,0,0,1,759.63,58.86Zm2.43-.59a1.43,1.43,0,0,0,.49-.55v-1.1a3,3,0,0,0-.38-.09,3.49,3.49,0,0,0-.5,0,1.45,1.45,0,0,0-1,.3,1,1,0,0,0-.31.75.94.94,0,0,0,.25.7,1,1,0,0,0,.72.25A1.32,1.32,0,0,0,762.06,58.27Z" transform="translate(0 -1)" style="fill:#fff"/><path d="M768.91,50.84h2.56a3.47,3.47,0,0,1,2.35.71,2.48,2.48,0,0,1,.81,2,2.65,2.65,0,0,1-.21,1.07,2.42,2.42,0,0,1-.62.84,2.84,2.84,0,0,1-1,.55,4.39,4.39,0,0,1-1.37.2h-1.24v3.07h-1.28Zm2.42,4.37a2.24,2.24,0,0,0,1.49-.43,1.57,1.57,0,0,0,.51-1.27c0-1.14-.66-1.71-2-1.71h-1.17v3.41Z" transform="translate(0 -1)" style="fill:#fff"/><path d="M779.62,53.55a1.58,1.58,0,0,1,.6.38,1.7,1.7,0,0,1,.42.65,2.78,2.78,0,0,1,.15,1v3.69h-1.17V55.69a1.3,1.3,0,0,0-.31-1,1.12,1.12,0,0,0-.8-.29,1.55,1.55,0,0,0-.81.23,2.42,2.42,0,0,0-.66.59v4h-1.18V50.6H777v3.83a3.42,3.42,0,0,1,.77-.7,1.87,1.87,0,0,1,1.09-.3A2.24,2.24,0,0,1,779.62,53.55Z" transform="translate(0 -1)" style="fill:#fff"/><path d="M782.51,58.86a1.67,1.67,0,0,1-.5-1.3,1.53,1.53,0,0,1,.16-.7,1.68,1.68,0,0,1,.46-.57,2.19,2.19,0,0,1,.73-.38,3.24,3.24,0,0,1,1-.14,3.28,3.28,0,0,1,1.11.17v-.48a1.16,1.16,0,0,0-.3-.87,1.37,1.37,0,0,0-1-.31,2.94,2.94,0,0,0-1,.17,3.75,3.75,0,0,0-.65.27V53.8a3.1,3.1,0,0,1,.7-.23,4.71,4.71,0,0,1,1.2-.14,2.59,2.59,0,0,1,1.68.48,1.73,1.73,0,0,1,.57,1.42v2.41a1.08,1.08,0,0,0,.13.61.39.39,0,0,0,.34.2.47.47,0,0,0,.17,0,.33.33,0,0,0,.12-.05v.69a.75.75,0,0,1-.18.08l-.23,0-.31,0a1.36,1.36,0,0,1-.71-.18.93.93,0,0,1-.4-.63,2,2,0,0,1-.69.63,2.09,2.09,0,0,1-1,.21A1.86,1.86,0,0,1,782.51,58.86Zm2.44-.59a1.51,1.51,0,0,0,.49-.55v-1.1a2.84,2.84,0,0,0-.39-.09,3.49,3.49,0,0,0-.5,0,1.41,1.41,0,0,0-1,.3,1,1,0,0,0-.32.75.94.94,0,0,0,.25.7,1,1,0,0,0,.72.25A1.37,1.37,0,0,0,785,58.27Z" transform="translate(0 -1)" style="fill:#fff"/><path d="M788.8,59.26A3.1,3.1,0,0,1,788,59V58a3.88,3.88,0,0,0,.85.39,3,3,0,0,0,.9.15,1.47,1.47,0,0,0,.83-.2.68.68,0,0,0,.29-.6.61.61,0,0,0-.11-.36,1.13,1.13,0,0,0-.31-.25,3,3,0,0,0-.44-.2l-.51-.21a2.91,2.91,0,0,1-1-.66,1.42,1.42,0,0,1-.37-1,1.47,1.47,0,0,1,.15-.67,1.54,1.54,0,0,1,.42-.5,1.83,1.83,0,0,1,.64-.32,2.64,2.64,0,0,1,.81-.12,3.38,3.38,0,0,1,1,.12,2.76,2.76,0,0,1,.65.25v.93a2.43,2.43,0,0,0-.71-.32,2.72,2.72,0,0,0-.84-.13,1.13,1.13,0,0,0-.69.19.58.58,0,0,0-.24.5.55.55,0,0,0,.08.32.91.91,0,0,0,.24.24,2.12,2.12,0,0,0,.37.19l.48.21.62.29a2.18,2.18,0,0,1,.52.36,1.45,1.45,0,0,1,.34.47,1.39,1.39,0,0,1,.13.63,1.49,1.49,0,0,1-.59,1.24,2.58,2.58,0,0,1-1.64.47A4.06,4.06,0,0,1,788.8,59.26Z" transform="translate(0 -1)" style="fill:#fff"/><path d="M794.73,59.18a2.68,2.68,0,0,1-1-.61,2.51,2.51,0,0,1-.59-.94,3.45,3.45,0,0,1-.2-1.23,3.57,3.57,0,0,1,.19-1.21,2.65,2.65,0,0,1,.57-.93,2.33,2.33,0,0,1,.87-.61,3,3,0,0,1,1.15-.22,2.68,2.68,0,0,1,1,.19,2.28,2.28,0,0,1,.8.53,2.33,2.33,0,0,1,.51.81,3,3,0,0,1,.18,1c0,.12,0,.23,0,.36s0,.2,0,.23h-4.09A2.21,2.21,0,0,0,794.7,58a1.78,1.78,0,0,0,1.39.51,3.14,3.14,0,0,0,1.92-.6v.91a2.63,2.63,0,0,1-.94.44,4,4,0,0,1-1.11.15A3.64,3.64,0,0,1,794.73,59.18Zm2.43-3.35a1.53,1.53,0,0,0-.35-1.11,1.52,1.52,0,0,0-2.14,0,1.81,1.81,0,0,0-.46,1.11Z" transform="translate(0 -1)" style="fill:#fff"/></svg>