<svg id="Layer_1" data-name="Layer 1" xmlns="http://www.w3.org/2000/svg" viewBox="0 0 1063 568"><circle cx="42" cy="49" r="42" style="fill:#5990f6"/><circle cx="53" cy="213" r="42" style="fill:#5990f6"/><circle cx="208" cy="49" r="42" style="fill:#5990f6"/><circle cx="363" cy="49" r="42" style="fill:#5990f6"/><circle cx="363" cy="213" r="42" style="fill:#5990f6"/><circle cx="203" cy="213" r="42" style="fill:#5990f6"/><rect x="941" y="299" width="122" height="122" style="fill:#afcbff"/><line x1="84" y1="49" x2="85" y2="49" style="fill:none;stroke:gray;stroke-miterlimit:10"/><line x1="86.95" y1="49" x2="164.02" y2="49" style="fill:none;stroke:gray;stroke-miterlimit:10;stroke-dasharray:1.9512195587158203,1.9512195587158203"/><line x1="165" y1="49" x2="166" y2="49" style="fill:none;stroke:gray;stroke-miterlimit:10"/><line x1="82.06" y1="61.64" x2="82.98" y2="62.04" style="fill:none;stroke:#fff;stroke-miterlimit:10"/><line x1="84.82" y1="62.84" x2="342.01" y2="174.82" style="fill:none;stroke:#fff;stroke-miterlimit:10;stroke-dasharray:2.010815382003784,2.010815382003784"/><line x1="342.93" y1="175.23" x2="343.85" y2="175.63" style="fill:none;stroke:#fff;stroke-miterlimit:10"/><line x1="373.9" y1="172.44" x2="373.09" y2="171.84" style="fill:none;stroke:#fff;stroke-miterlimit:10"/><line x1="371.47" y1="170.66" x2="242.62" y2="76.15" style="fill:none;stroke:#fff;stroke-miterlimit:10;stroke-dasharray:2.010014295578003,2.010014295578003"/><line x1="241.81" y1="75.55" x2="241" y2="74.96" style="fill:none;stroke:#fff;stroke-miterlimit:10"/><line x1="355.37" y1="171.7" x2="366.86" y2="91" style="fill:none;stroke:#fff;stroke-miterlimit:10;stroke-dasharray:2,2"/><path d="M39.78,71.82a4,4,0,0,1-1.19-3.12V61.46H40.3v7.08A3.12,3.12,0,0,0,41,70.79a2.79,2.79,0,0,0,2.11.71,2.69,2.69,0,0,0,2-.71,3.08,3.08,0,0,0,.7-2.25V61.46h1.7V68.7a3.93,3.93,0,0,1-1.2,3.11,4.76,4.76,0,0,1-3.27,1A4.86,4.86,0,0,1,39.78,71.82Z" transform="translate(-12 -18)" style="fill:#fff"/><path d="M51,72.28a2.49,2.49,0,0,1-.59-1.85V66.26H49.07V65.1h1.38V63.41L52,63.12v2h2v1.16H52v4.12a1.3,1.3,0,0,0,.28,1,1.18,1.18,0,0,0,.88.28,3.62,3.62,0,0,0,.5,0,2.21,2.21,0,0,0,.38-.11v1.19a2.72,2.72,0,0,1-.5.13,4,4,0,0,1-.74.06A2.47,2.47,0,0,1,51,72.28Z" transform="translate(-12 -18)" style="fill:#fff"/><path d="M55.81,63.64a.79.79,0,0,1-.29-.65.86.86,0,0,1,.29-.68,1.09,1.09,0,0,1,.72-.25,1.13,1.13,0,0,1,.73.25.86.86,0,0,1,.29.68.79.79,0,0,1-.29.65,1.18,1.18,0,0,1-.73.23A1.13,1.13,0,0,1,55.81,63.64Zm-.05,1.46h1.55v7.56H55.76Z" transform="translate(-12 -18)" style="fill:#fff"/><path d="M60.21,72.22a2.6,2.6,0,0,1-.55-1.85V61.14h1.57v9.24a1.29,1.29,0,0,0,.27.91,1.14,1.14,0,0,0,.85.28,3.74,3.74,0,0,0,.49,0l.31-.07v1.15l-.43.1a3.64,3.64,0,0,1-.78.07A2.29,2.29,0,0,1,60.21,72.22Z" transform="translate(-12 -18)" style="fill:#fff"/><path d="M65.07,72.68a4.26,4.26,0,0,1-1-.39V71a4.59,4.59,0,0,0,1.14.53,4.4,4.4,0,0,0,1.2.19,1.88,1.88,0,0,0,1.1-.27.88.88,0,0,0,.39-.79.76.76,0,0,0-.15-.48,1.35,1.35,0,0,0-.41-.33,4.66,4.66,0,0,0-.59-.28l-.68-.27a3.92,3.92,0,0,1-1.39-.89,1.88,1.88,0,0,1-.49-1.36,1.85,1.85,0,0,1,.2-.89,1.9,1.9,0,0,1,.56-.67,2.73,2.73,0,0,1,.85-.44,3.73,3.73,0,0,1,1.09-.15,4.73,4.73,0,0,1,1.26.15,3.9,3.9,0,0,1,.87.35v1.23a3.31,3.31,0,0,0-1-.43,3.89,3.89,0,0,0-1.12-.16,1.51,1.51,0,0,0-.92.24.77.77,0,0,0-.32.67.75.75,0,0,0,.11.43,1,1,0,0,0,.32.31,4.31,4.31,0,0,0,.49.27l.64.27.83.39a3.49,3.49,0,0,1,.69.47,2.22,2.22,0,0,1,.46.64,2,2,0,0,1,.17.84,2,2,0,0,1-.79,1.65,3.46,3.46,0,0,1-2.19.62A5.33,5.33,0,0,1,65.07,72.68Z" transform="translate(-12 -18)" style="fill:#fff"/><path d="M41.65,226.78H38.18v-1.32h8.67v1.32H43.36v9.88H41.65Z" transform="translate(-12 -18)" style="fill:#fff"/><path d="M53,229.08a2.12,2.12,0,0,1,.81.5,2.36,2.36,0,0,1,.55.87,3.52,3.52,0,0,1,.21,1.29v4.92H53v-4.73a1.8,1.8,0,0,0-.41-1.35,1.51,1.51,0,0,0-1.06-.38,2,2,0,0,0-1.08.3,3.29,3.29,0,0,0-.89.79v5.37H48V225.14h1.55v5.11a4.89,4.89,0,0,1,1-.94,2.52,2.52,0,0,1,1.44-.39A2.92,2.92,0,0,1,53,229.08Z" transform="translate(-12 -18)" style="fill:#fff"/><path d="M58.61,236.58a3.72,3.72,0,0,1-1.26-.8,3.55,3.55,0,0,1-.79-1.26,4.76,4.76,0,0,1-.27-1.65,4.9,4.9,0,0,1,.26-1.61A3.68,3.68,0,0,1,57.3,230a3.41,3.41,0,0,1,1.17-.81,3.94,3.94,0,0,1,1.53-.29,3.57,3.57,0,0,1,1.38.25,3.11,3.11,0,0,1,1.07.7,3.16,3.16,0,0,1,.69,1.09,3.92,3.92,0,0,1,.24,1.4c0,.15,0,.31,0,.47s0,.27,0,.31H57.89a2.92,2.92,0,0,0,.69,1.85,2.39,2.39,0,0,0,1.85.67,4.28,4.28,0,0,0,2.56-.79v1.21a3.9,3.9,0,0,1-1.25.59,6.06,6.06,0,0,1-1.48.19A4.76,4.76,0,0,1,58.61,236.58Zm3.25-4.46a2.06,2.06,0,0,0-.48-1.49,2.05,2.05,0,0,0-2.84,0,2.41,2.41,0,0,0-.62,1.49Z" transform="translate(-12 -18)" style="fill:#fff"/><path d="M76.21,236.66H74.64v-4.74a1.92,1.92,0,0,0-.36-1.35,1.35,1.35,0,0,0-1-.37,1.71,1.71,0,0,0-1.07.34,3.59,3.59,0,0,0-.77.83v5.29H69.89v-4.78a1.86,1.86,0,0,0-.37-1.32,1.35,1.35,0,0,0-1-.36,1.83,1.83,0,0,0-1,.31,3.37,3.37,0,0,0-.82.78v5.37H65.12v-5.77c0-.45,0-.83,0-1.15s0-.53-.07-.63h1.44c0,.07,0,.2.09.4a4.54,4.54,0,0,1,.1.77l.44-.49a3.18,3.18,0,0,1,.52-.44,2.6,2.6,0,0,1,.65-.31,2.57,2.57,0,0,1,.82-.12,2.39,2.39,0,0,1,1.42.38,2.23,2.23,0,0,1,.77,1.09,4.08,4.08,0,0,1,1-1,2.36,2.36,0,0,1,1.42-.42,2.44,2.44,0,0,1,1.84.69,2.89,2.89,0,0,1,.67,2.09Z" transform="translate(-12 -18)" style="fill:#fff"/><path d="M80.22,236.58a3.58,3.58,0,0,1-1.25-.8,3.42,3.42,0,0,1-.79-1.26,4.53,4.53,0,0,1-.28-1.65,4.65,4.65,0,0,1,.27-1.61,3.38,3.38,0,0,1,.75-1.24,3.32,3.32,0,0,1,1.17-.81,3.9,3.9,0,0,1,1.53-.29,3.57,3.57,0,0,1,1.38.25,3,3,0,0,1,1.06.7,3.16,3.16,0,0,1,.69,1.09,3.92,3.92,0,0,1,.24,1.4c0,.15,0,.31,0,.47a2.5,2.5,0,0,0,0,.31H79.5a3,3,0,0,0,.69,1.85,2.43,2.43,0,0,0,1.86.67,4.3,4.3,0,0,0,2.56-.79v1.21a3.86,3.86,0,0,1-1.26.59,6,6,0,0,1-1.48.19A4.76,4.76,0,0,1,80.22,236.58Zm3.25-4.46a2.06,2.06,0,0,0-.47-1.49,2.07,2.07,0,0,0-2.85,0,2.4,2.4,0,0,0-.61,1.49Z" transform="translate(-12 -18)" style="fill:#fff"/><path d="M87.49,236.69a4.1,4.1,0,0,1-1-.39V235a4.24,4.24,0,0,0,1.14.52,4,4,0,0,0,1.2.2,1.9,1.9,0,0,0,1.1-.27.88.88,0,0,0,.38-.79.76.76,0,0,0-.15-.48,1.4,1.4,0,0,0-.41-.34c-.17-.09-.36-.18-.58-.27l-.68-.27a4,4,0,0,1-1.39-.89,1.89,1.89,0,0,1-.5-1.37,1.93,1.93,0,0,1,.2-.88,2,2,0,0,1,.56-.68,2.77,2.77,0,0,1,.86-.43,3.73,3.73,0,0,1,1.09-.15,4.73,4.73,0,0,1,1.26.15,3.39,3.39,0,0,1,.86.35v1.23a3.08,3.08,0,0,0-1-.43,3.87,3.87,0,0,0-1.11-.16,1.54,1.54,0,0,0-.93.24.79.79,0,0,0-.32.67.83.83,0,0,0,.11.43,1.06,1.06,0,0,0,.32.31,4.52,4.52,0,0,0,.5.27l.64.27.82.39a3.11,3.11,0,0,1,.69.47,2.08,2.08,0,0,1,.47.63,2.19,2.19,0,0,1-.62,2.5,3.46,3.46,0,0,1-2.19.62A5.27,5.27,0,0,1,87.49,236.69Z" transform="translate(-12 -18)" style="fill:#fff"/><path d="M196.32,213.93h3.49a4.47,4.47,0,0,1,3,.89,3.08,3.08,0,0,1,1.06,2.48,3.35,3.35,0,0,1-.57,1.93,3,3,0,0,1-1.64,1.18l3.49,4.72h-2l-3.19-4.4h-2v4.4h-1.7Zm3.18,5.52a3,3,0,0,0,1.95-.55,1.94,1.94,0,0,0,.68-1.6,1.88,1.88,0,0,0-.68-1.57,3.14,3.14,0,0,0-1.95-.52H198v4.24Z" transform="translate(-12 -18)" style="fill:#fff"/><path d="M208.1,225a3.57,3.57,0,0,1-1.26-.8,3.42,3.42,0,0,1-.79-1.26,4.74,4.74,0,0,1-.27-1.64,4.57,4.57,0,0,1,.26-1.61,3.72,3.72,0,0,1,.75-1.25,3.41,3.41,0,0,1,1.17-.81,3.9,3.9,0,0,1,1.53-.29,3.77,3.77,0,0,1,1.38.25,3.13,3.13,0,0,1,1.07.71,3,3,0,0,1,.68,1.08,4,4,0,0,1,.24,1.4c0,.15,0,.31,0,.48s0,.27,0,.31h-5.45a2.94,2.94,0,0,0,.68,1.84,2.39,2.39,0,0,0,1.86.67,4.21,4.21,0,0,0,2.56-.79v1.21a3.66,3.66,0,0,1-1.26.59,5.51,5.51,0,0,1-1.48.19A4.52,4.52,0,0,1,208.1,225Zm3.24-4.46a2,2,0,0,0-.47-1.48,1.8,1.8,0,0,0-1.45-.58,1.82,1.82,0,0,0-1.4.58,2.43,2.43,0,0,0-.61,1.48Z" transform="translate(-12 -18)" style="fill:#fff"/><path d="M214.91,224.62a2.25,2.25,0,0,1-.67-1.73,2.06,2.06,0,0,1,.22-.94,2.21,2.21,0,0,1,.61-.76,3,3,0,0,1,1-.5,4.68,4.68,0,0,1,2.77,0v-.64a1.62,1.62,0,0,0-.4-1.17,1.82,1.82,0,0,0-1.33-.4,3.86,3.86,0,0,0-1.39.22,6.09,6.09,0,0,0-.87.36v-1.22a4.23,4.23,0,0,1,.94-.32,6.22,6.22,0,0,1,1.59-.18,3.4,3.4,0,0,1,2.24.64,2.31,2.31,0,0,1,.77,1.89v3.22a1.44,1.44,0,0,0,.17.81.52.52,0,0,0,.45.26.8.8,0,0,0,.23,0l.16-.07V225a1.33,1.33,0,0,1-.24.11l-.31.06a2.46,2.46,0,0,1-.41,0,1.81,1.81,0,0,1-.95-.24,1.22,1.22,0,0,1-.53-.84,2.71,2.71,0,0,1-.92.84,2.85,2.85,0,0,1-1.33.28A2.46,2.46,0,0,1,214.91,224.62Zm3.25-.79a1.92,1.92,0,0,0,.66-.73v-1.46a3,3,0,0,0-.52-.13,4.27,4.27,0,0,0-.67,0,1.9,1.9,0,0,0-1.33.4,1.3,1.3,0,0,0-.43,1,1.22,1.22,0,0,0,.34.93,1.3,1.3,0,0,0,1,.33A1.77,1.77,0,0,0,218.16,223.83Z" transform="translate(-12 -18)" style="fill:#fff"/><path d="M224.56,225a3.52,3.52,0,0,1-2-2.05,4.46,4.46,0,0,1-.28-1.63,4.53,4.53,0,0,1,.28-1.65,3.75,3.75,0,0,1,.81-1.25,3.38,3.38,0,0,1,1.25-.79,4.45,4.45,0,0,1,1.62-.28,4.5,4.5,0,0,1,1.25.16,3.47,3.47,0,0,1,.9.34v1.38a4,4,0,0,0-.85-.44,3,3,0,0,0-1.15-.2,2.3,2.3,0,0,0-1.85.73,3.48,3.48,0,0,0,0,4,2.27,2.27,0,0,0,1.82.73,3.43,3.43,0,0,0,1.15-.18,3.25,3.25,0,0,0,.87-.45v1.35a3.64,3.64,0,0,1-1,.37,5.2,5.2,0,0,1-1.23.14A4.3,4.3,0,0,1,224.56,225Z" transform="translate(-12 -18)" style="fill:#fff"/><path d="M231.42,224.75a2.49,2.49,0,0,1-.59-1.85v-4.17h-1.37v-1.15h1.37v-1.7l1.57-.29v2h2v1.15h-2v4.13a1.33,1.33,0,0,0,.28,1,1.25,1.25,0,0,0,.89.27,3.6,3.6,0,0,0,.49,0,1.82,1.82,0,0,0,.39-.11v1.19a2.34,2.34,0,0,1-.51.13,3.88,3.88,0,0,1-.74.06A2.49,2.49,0,0,1,231.42,224.75Z" transform="translate(-12 -18)" style="fill:#fff"/><path d="M195,244.12a4.95,4.95,0,0,1-2.9-3,6.91,6.91,0,0,1-.39-2.38,6.52,6.52,0,0,1,.4-2.33,5.32,5.32,0,0,1,1.13-1.84,5.14,5.14,0,0,1,1.76-1.22,6,6,0,0,1,2.32-.44,7.87,7.87,0,0,1,1.71.18,5,5,0,0,1,1.41.52v1.61a4.75,4.75,0,0,0-1.33-.68,5.12,5.12,0,0,0-1.69-.27,3.94,3.94,0,0,0-1.64.33,3.59,3.59,0,0,0-1.25.93,4.22,4.22,0,0,0-.8,1.41,5.76,5.76,0,0,0-.28,1.8,5.86,5.86,0,0,0,.28,1.83,4.27,4.27,0,0,0,.8,1.4,3.55,3.55,0,0,0,1.26.9,4.15,4.15,0,0,0,1.65.32,5,5,0,0,0,1.68-.28,6.76,6.76,0,0,0,1.32-.65v1.57a5,5,0,0,1-1.4.53,7.15,7.15,0,0,1-1.68.19A6.25,6.25,0,0,1,195,244.12Z" transform="translate(-12 -18)" style="fill:#fff"/><path d="M204.08,244.22a3.56,3.56,0,0,1-1.2-.84,3.65,3.65,0,0,1-.77-1.26,4.94,4.94,0,0,1,0-3.22,3.47,3.47,0,0,1,.77-1.24,3.28,3.28,0,0,1,1.21-.8,4.39,4.39,0,0,1,1.57-.28,4.25,4.25,0,0,1,1.56.28,3.33,3.33,0,0,1,1.2.8,3.45,3.45,0,0,1,.76,1.24,4.37,4.37,0,0,1,.28,1.62,4.59,4.59,0,0,1-.27,1.6,3.49,3.49,0,0,1-.76,1.26,3.56,3.56,0,0,1-1.2.84,4,4,0,0,1-1.57.3A4,4,0,0,1,204.08,244.22Zm2.48-1.19a1.89,1.89,0,0,0,.69-.57,2.59,2.59,0,0,0,.44-.86,3.71,3.71,0,0,0,.15-1.08,3,3,0,0,0-.59-2,2,2,0,0,0-1.59-.71,2,2,0,0,0-1.6.71,2.92,2.92,0,0,0-.6,2,3.71,3.71,0,0,0,.15,1.08,2.59,2.59,0,0,0,.44.86,1.89,1.89,0,0,0,.69.57,2,2,0,0,0,.92.21A1.93,1.93,0,0,0,206.56,243Z" transform="translate(-12 -18)" style="fill:#fff"/><path d="M222.27,244.33H220.7v-4.75a2,2,0,0,0-.36-1.35,1.38,1.38,0,0,0-1-.37,1.68,1.68,0,0,0-1.07.35,3.21,3.21,0,0,0-.77.83v5.29H216v-4.78a1.81,1.81,0,0,0-.37-1.32,1.29,1.29,0,0,0-1-.37,1.79,1.79,0,0,0-1,.32,3.41,3.41,0,0,0-.83.78v5.37h-1.57v-5.78c0-.45,0-.83,0-1.15a4.66,4.66,0,0,0-.07-.62h1.44a3.09,3.09,0,0,1,.1.4,5.89,5.89,0,0,1,.09.76l.44-.48a2.7,2.7,0,0,1,.52-.44,2.81,2.81,0,0,1,.65-.32,2.64,2.64,0,0,1,.83-.12,2.36,2.36,0,0,1,1.41.38,2.21,2.21,0,0,1,.78,1.1,4.09,4.09,0,0,1,1-1.06,2.38,2.38,0,0,1,1.42-.42,2.44,2.44,0,0,1,1.85.69,2.94,2.94,0,0,1,.66,2.1Z" transform="translate(-12 -18)" style="fill:#fff"/><path d="M224.35,238.7c0-.46,0-.87,0-1.24s0-.59-.05-.68h1.32c0,.08,0,.17.08.27a1.84,1.84,0,0,1,.06.29c0,.1,0,.22.06.35a4.39,4.39,0,0,1,1-.8,2.8,2.8,0,0,1,1.37-.31,3.43,3.43,0,0,1,1.42.29,3.12,3.12,0,0,1,1.09.8,3.51,3.51,0,0,1,.69,1.23,5,5,0,0,1,.24,1.59,4.82,4.82,0,0,1-.25,1.59,3.81,3.81,0,0,1-.7,1.27,3.2,3.2,0,0,1-1.11.85,3.37,3.37,0,0,1-1.44.3,3.09,3.09,0,0,1-1.26-.22,3,3,0,0,1-.92-.64v4.43h-1.57Zm5,3.92a3.39,3.39,0,0,0,.59-2.13,3.05,3.05,0,0,0-.58-2,2.06,2.06,0,0,0-1.64-.68,2,2,0,0,0-1,.26,4.11,4.11,0,0,0-.82.62v3.78a3.81,3.81,0,0,0,.79.68,1.84,1.84,0,0,0,1,.26A2,2,0,0,0,229.39,242.62Z" transform="translate(-12 -18)" style="fill:#fff"/><path d="M233.94,244.35a3.94,3.94,0,0,1-1-.39v-1.28a4.69,4.69,0,0,0,1.13.53,4,4,0,0,0,1.2.19,2,2,0,0,0,1.11-.26.92.92,0,0,0,.38-.8.76.76,0,0,0-.15-.48,1.38,1.38,0,0,0-.41-.33,3.48,3.48,0,0,0-.58-.27l-.68-.28a4,4,0,0,1-1.39-.88,1.88,1.88,0,0,1-.5-1.37,2,2,0,0,1,.2-.89,1.9,1.9,0,0,1,.56-.67,2.48,2.48,0,0,1,.86-.43,3.4,3.4,0,0,1,1.08-.16,4.45,4.45,0,0,1,1.27.16,3.41,3.41,0,0,1,.86.34v1.23a3.46,3.46,0,0,0-1-.43,3.87,3.87,0,0,0-1.11-.16,1.52,1.52,0,0,0-.93.24.79.79,0,0,0-.32.67.81.81,0,0,0,.11.43,1.08,1.08,0,0,0,.32.32,4.58,4.58,0,0,0,.5.26c.19.09.4.18.64.27l.82.39a3.14,3.14,0,0,1,.69.48,1.9,1.9,0,0,1,.46.63,1.86,1.86,0,0,1,.17.84,2,2,0,0,1-.78,1.65,3.48,3.48,0,0,1-2.19.62A5.22,5.22,0,0,1,233.94,244.35Z" transform="translate(-12 -18)" style="fill:#fff"/><path d="M199.24,53.18h-3.47V51.86h8.67v1.32H201v9.88h-1.71Z" transform="translate(-12 -18)" style="fill:#fff"/><path d="M210.63,55.48a2.12,2.12,0,0,1,.81.5,2.36,2.36,0,0,1,.55.87,3.52,3.52,0,0,1,.21,1.29v4.92h-1.57V58.33a1.76,1.76,0,0,0-.41-1.35,1.5,1.5,0,0,0-1.06-.38,2,2,0,0,0-1.08.3,3.29,3.29,0,0,0-.89.79v5.37h-1.57V51.54h1.56v5.11a4.61,4.61,0,0,1,1-.94,2.55,2.55,0,0,1,1.45-.39A2.86,2.86,0,0,1,210.63,55.48Z" transform="translate(-12 -18)" style="fill:#fff"/><path d="M216.2,63a3.72,3.72,0,0,1-1.26-.8,3.55,3.55,0,0,1-.79-1.26,4.76,4.76,0,0,1-.27-1.65,4.9,4.9,0,0,1,.26-1.61,3.54,3.54,0,0,1,.76-1.24,3.28,3.28,0,0,1,1.16-.81,4,4,0,0,1,1.53-.29,3.62,3.62,0,0,1,1.39.25,3.06,3.06,0,0,1,1.06.7,3.16,3.16,0,0,1,.69,1.09,3.92,3.92,0,0,1,.24,1.4c0,.15,0,.31,0,.47s0,.27,0,.31h-5.46a2.92,2.92,0,0,0,.69,1.85,2.39,2.39,0,0,0,1.85.67,4.25,4.25,0,0,0,2.56-.79v1.21a3.68,3.68,0,0,1-1.25.58,5.62,5.62,0,0,1-1.48.2A4.76,4.76,0,0,1,216.2,63Zm3.25-4.46A2.1,2.1,0,0,0,219,57a2.07,2.07,0,0,0-2.85,0,2.47,2.47,0,0,0-.62,1.49Z" transform="translate(-12 -18)" style="fill:#fff"/><path d="M233.8,63.06h-1.57V58.32a1.92,1.92,0,0,0-.36-1.35,1.34,1.34,0,0,0-1-.37,1.72,1.72,0,0,0-1.08.34,3.55,3.55,0,0,0-.76.83v5.29h-1.54V58.28a1.81,1.81,0,0,0-.37-1.32,1.32,1.32,0,0,0-1-.36,1.84,1.84,0,0,0-1,.31,3.37,3.37,0,0,0-.82.78v5.37h-1.57V57.29c0-.45,0-.83,0-1.15a5.15,5.15,0,0,0-.07-.63H224c0,.07.05.2.1.4a6.08,6.08,0,0,1,.09.77l.44-.49a3.67,3.67,0,0,1,.52-.44,2.6,2.6,0,0,1,.65-.31,2.57,2.57,0,0,1,.82-.12,2.39,2.39,0,0,1,1.42.38,2.19,2.19,0,0,1,.78,1.09,3.89,3.89,0,0,1,1-1,2.36,2.36,0,0,1,1.42-.42,2.46,2.46,0,0,1,1.85.69,2.93,2.93,0,0,1,.66,2.09Z" transform="translate(-12 -18)" style="fill:#fff"/><path d="M237.82,63a3.62,3.62,0,0,1-1.26-.8,3.42,3.42,0,0,1-.79-1.26,4.76,4.76,0,0,1-.27-1.65,4.65,4.65,0,0,1,.26-1.61,3.68,3.68,0,0,1,.75-1.24,3.41,3.41,0,0,1,1.17-.81,3.9,3.9,0,0,1,1.53-.29,3.57,3.57,0,0,1,1.38.25,3.11,3.11,0,0,1,1.07.7,3.3,3.3,0,0,1,.68,1.09,3.92,3.92,0,0,1,.24,1.4c0,.15,0,.31,0,.47s0,.27,0,.31H237.1a3,3,0,0,0,.68,1.85,2.43,2.43,0,0,0,1.86.67,4.3,4.3,0,0,0,2.56-.79v1.21a3.65,3.65,0,0,1-1.26.58,5.51,5.51,0,0,1-1.48.2A4.74,4.74,0,0,1,237.82,63Zm3.24-4.46a2,2,0,0,0-.47-1.49,1.83,1.83,0,0,0-1.45-.57,1.85,1.85,0,0,0-1.4.57,2.46,2.46,0,0,0-.61,1.49Z" transform="translate(-12 -18)" style="fill:#fff"/><path d="M191.3,71.06h3.41a4.56,4.56,0,0,1,3.13,1,3.28,3.28,0,0,1,1.08,2.6,3.51,3.51,0,0,1-.28,1.43,3.21,3.21,0,0,1-.82,1.12,3.92,3.92,0,0,1-1.34.73,5.62,5.62,0,0,1-1.82.27H193v4.09h-1.7Zm3.22,5.83a3,3,0,0,0,2-.57,2.08,2.08,0,0,0,.68-1.7c0-1.52-.87-2.28-2.62-2.28H193v4.55Z" transform="translate(-12 -18)" style="fill:#fff"/><path d="M200.57,76.5c0-.4,0-.76,0-1.08s-.05-.55-.07-.71h1.44q0,.12.09.42a5.62,5.62,0,0,1,.1.67,3.65,3.65,0,0,1,.84-.88,1.86,1.86,0,0,1,1.19-.4,2.22,2.22,0,0,1,.61.07,2.45,2.45,0,0,1,.38.14V76.1a3.36,3.36,0,0,0-.44-.16,2.26,2.26,0,0,0-.69-.09,2.33,2.33,0,0,0-1,.22,2.29,2.29,0,0,0-.83.66v5.53h-1.57Z" transform="translate(-12 -18)" style="fill:#fff"/><path d="M208.2,82.15a3.53,3.53,0,0,1-1.2-.83,3.65,3.65,0,0,1-.77-1.26,4.63,4.63,0,0,1-.27-1.6,4.68,4.68,0,0,1,.27-1.63,3.56,3.56,0,0,1,.77-1.24,3.39,3.39,0,0,1,1.21-.79,4.18,4.18,0,0,1,1.57-.28,4.05,4.05,0,0,1,1.56.28,3.32,3.32,0,0,1,2,2,4.46,4.46,0,0,1,.28,1.63,4.63,4.63,0,0,1-.27,1.6,3.49,3.49,0,0,1-.76,1.26,3.53,3.53,0,0,1-1.2.83,4,4,0,0,1-1.57.31A4,4,0,0,1,208.2,82.15ZM210.68,81a2.11,2.11,0,0,0,.69-.57,2.69,2.69,0,0,0,.44-.86,3.71,3.71,0,0,0,.15-1.08,3,3,0,0,0-.59-1.95,2,2,0,0,0-1.59-.71,2,2,0,0,0-1.6.71,2.92,2.92,0,0,0-.6,1.95,3.71,3.71,0,0,0,.15,1.08,2.69,2.69,0,0,0,.44.86,2.11,2.11,0,0,0,.69.57,2,2,0,0,0,.92.21A1.93,1.93,0,0,0,210.68,81Z" transform="translate(-12 -18)" style="fill:#fff"/><path d="M214.28,74.71h1.63L218,79.9l2.05-5.19h1.61l-3.28,7.62h-.81Z" transform="translate(-12 -18)" style="fill:#fff"/><path d="M223,73.25a.77.77,0,0,1-.29-.65.83.83,0,0,1,.29-.68,1,1,0,0,1,.72-.25,1.05,1.05,0,0,1,.72.25.84.84,0,0,1,.3.68.78.78,0,0,1-.3.65,1.15,1.15,0,0,1-.72.23A1.13,1.13,0,0,1,223,73.25ZM223,74.71h1.55v7.55H223Z" transform="translate(-12 -18)" style="fill:#fff"/><path d="M228.37,82.16a3.13,3.13,0,0,1-1.05-.78,3.5,3.5,0,0,1-.66-1.22,4.9,4.9,0,0,1-.24-1.58,5.29,5.29,0,0,1,.25-1.62,3.83,3.83,0,0,1,.71-1.29,3.25,3.25,0,0,1,1.09-.85,3.33,3.33,0,0,1,1.43-.3,2.8,2.8,0,0,1,1.26.25,3.34,3.34,0,0,1,.94.66V70.74h1.57v9.62c0,.45,0,.85,0,1.22s0,.59.05.68h-1.33c0-.07,0-.16-.06-.25l-.06-.28c0-.1,0-.22,0-.35a3.43,3.43,0,0,1-1.07.78,3.33,3.33,0,0,1-1.44.28A3.24,3.24,0,0,1,228.37,82.16ZM231.26,81a3,3,0,0,0,.84-.66V76.63l-.28-.27a1.82,1.82,0,0,0-.4-.3,2,2,0,0,0-.53-.24,2.09,2.09,0,0,0-.67-.1,1.92,1.92,0,0,0-1.63.75,3.38,3.38,0,0,0-.57,2.08,3.16,3.16,0,0,0,.56,2,1.91,1.91,0,0,0,1.6.68A2.21,2.21,0,0,0,231.26,81Z" transform="translate(-12 -18)" style="fill:#fff"/><path d="M237.64,82.18a3.72,3.72,0,0,1-1.26-.8,3.55,3.55,0,0,1-.79-1.26,4.76,4.76,0,0,1-.27-1.65,4.9,4.9,0,0,1,.26-1.61,3.54,3.54,0,0,1,.76-1.24,3.28,3.28,0,0,1,1.16-.81,4,4,0,0,1,1.53-.29,3.66,3.66,0,0,1,1.39.25,3.06,3.06,0,0,1,1.06.7,3.16,3.16,0,0,1,.69,1.09,3.92,3.92,0,0,1,.24,1.4c0,.15,0,.31,0,.47s0,.27,0,.31h-5.46a2.92,2.92,0,0,0,.69,1.85,2.39,2.39,0,0,0,1.85.67,4.28,4.28,0,0,0,2.56-.79v1.21a3.9,3.9,0,0,1-1.25.59,6.06,6.06,0,0,1-1.48.19A4.76,4.76,0,0,1,237.64,82.18Zm3.25-4.46a2.1,2.1,0,0,0-.47-1.49,1.84,1.84,0,0,0-1.45-.57,1.82,1.82,0,0,0-1.4.57,2.41,2.41,0,0,0-.62,1.49Z" transform="translate(-12 -18)" style="fill:#fff"/><path d="M244.15,76.5c0-.4,0-.76,0-1.08s-.05-.55-.07-.71h1.44c0,.08.05.22.1.42a5.74,5.74,0,0,1,.09.67,3.86,3.86,0,0,1,.84-.88,1.9,1.9,0,0,1,1.19-.4,2.18,2.18,0,0,1,.61.07,3.19,3.19,0,0,1,.39.14V76.1c-.11,0-.26-.1-.44-.16a2.55,2.55,0,0,0-1.71.13,2.29,2.29,0,0,0-.83.66v5.53h-1.57Z" transform="translate(-12 -18)" style="fill:#fff"/><path d="M345.25,61h-3.47V59.66h8.67V61H347v9.88h-1.71Z" transform="translate(-12 -18)" style="fill:#fff"/><path d="M352.38,70.85a4.65,4.65,0,0,1-1.2-.5V68.83a4.92,4.92,0,0,0,1.36.66,5.08,5.08,0,0,0,1.59.25,2.71,2.71,0,0,0,1.72-.46,1.65,1.65,0,0,0,.58-1.38,1.31,1.31,0,0,0-.2-.72,2.39,2.39,0,0,0-.53-.58,5,5,0,0,0-.8-.5q-.45-.24-1-.48c-.33-.16-.66-.34-1-.52a4.05,4.05,0,0,1-.86-.67,2.91,2.91,0,0,1-.6-.89,2.88,2.88,0,0,1,.71-3.29,3.94,3.94,0,0,1,2.65-.81,6.22,6.22,0,0,1,1.55.18,5.83,5.83,0,0,1,1.14.43v1.53a5.8,5.8,0,0,0-1.17-.57,4.18,4.18,0,0,0-1.48-.26,2.42,2.42,0,0,0-1.48.39,1.32,1.32,0,0,0-.52,1.15,1.37,1.37,0,0,0,.18.69,2.07,2.07,0,0,0,.49.54,4.69,4.69,0,0,0,.7.45l.83.41c.41.2.79.4,1.15.6a4.58,4.58,0,0,1,.94.72,3.47,3.47,0,0,1,.65.93,2.93,2.93,0,0,1,.24,1.23,3,3,0,0,1-.27,1.29,2.71,2.71,0,0,1-.79,1,3.81,3.81,0,0,1-1.23.66,5.13,5.13,0,0,1-1.63.24A6.37,6.37,0,0,1,352.38,70.85Z" transform="translate(-12 -18)" style="fill:#fff"/><path d="M367.22,70.66a5,5,0,0,1-1.77-1.18,5.16,5.16,0,0,1-1.12-1.83,7,7,0,0,1-.39-2.39,6.46,6.46,0,0,1,.4-2.32,5.35,5.35,0,0,1,1.12-1.84,5.14,5.14,0,0,1,1.77-1.22,6,6,0,0,1,2.32-.44,8.55,8.55,0,0,1,1.71.17,5.11,5.11,0,0,1,1.41.53v1.61a4.62,4.62,0,0,0-1.33-.68,5.12,5.12,0,0,0-1.69-.27,3.91,3.91,0,0,0-1.64.33,3.69,3.69,0,0,0-1.25.92,4.19,4.19,0,0,0-.8,1.42,5.38,5.38,0,0,0-.28,1.79,5.5,5.5,0,0,0,.28,1.83,4.05,4.05,0,0,0,.8,1.41,3.55,3.55,0,0,0,1.26.9,4.13,4.13,0,0,0,1.64.31,4.76,4.76,0,0,0,1.69-.28,6.24,6.24,0,0,0,1.32-.65v1.58a5,5,0,0,1-1.41.53,7.59,7.59,0,0,1-1.68.18A6.53,6.53,0,0,1,367.22,70.66Z" transform="translate(-12 -18)" style="fill:#fff"/><path d="M376.29,70.75a3.53,3.53,0,0,1-1.2-.83,3.65,3.65,0,0,1-.77-1.26,4.63,4.63,0,0,1-.27-1.6,4.68,4.68,0,0,1,.27-1.63,3.56,3.56,0,0,1,.77-1.24,3.39,3.39,0,0,1,1.21-.79,4.18,4.18,0,0,1,1.57-.28,4.05,4.05,0,0,1,1.56.28,3.4,3.4,0,0,1,1.19.79,3.56,3.56,0,0,1,.77,1.24,4.68,4.68,0,0,1,.27,1.63,4.63,4.63,0,0,1-.26,1.6,3.63,3.63,0,0,1-.76,1.26,3.53,3.53,0,0,1-1.2.83,4,4,0,0,1-1.57.31A4,4,0,0,1,376.29,70.75Zm2.48-1.18a2.34,2.34,0,0,0,.69-.57,2.91,2.91,0,0,0,.44-.86,3.71,3.71,0,0,0,.15-1.08,3,3,0,0,0-.59-2,2,2,0,0,0-1.59-.71,2,2,0,0,0-1.61.71,2.92,2.92,0,0,0-.6,2,3.4,3.4,0,0,0,.16,1.08,2.5,2.5,0,0,0,.44.86,2.11,2.11,0,0,0,.69.57,2,2,0,0,0,.92.21A1.93,1.93,0,0,0,378.77,69.57Z" transform="translate(-12 -18)" style="fill:#fff"/><path d="M383.39,65.1c0-.44,0-.83,0-1.16s-.05-.53-.07-.63h1.44l.1.4a6.08,6.08,0,0,1,.09.77,5.49,5.49,0,0,1,1-.94,2.5,2.5,0,0,1,1.47-.42,2.92,2.92,0,0,1,1,.16,2.12,2.12,0,0,1,.81.5,2.36,2.36,0,0,1,.55.87,3.52,3.52,0,0,1,.21,1.29v4.92H388.4V66.13a1.8,1.8,0,0,0-.41-1.35,1.51,1.51,0,0,0-1.06-.38,2,2,0,0,0-1.08.3,3.29,3.29,0,0,0-.89.79v5.37h-1.57Z" transform="translate(-12 -18)" style="fill:#fff"/><path d="M392.62,64.46h-1.29V63.31h1.29V61.52a2.27,2.27,0,0,1,.6-1.74,2.37,2.37,0,0,1,1.64-.55,3.24,3.24,0,0,1,.64.06l.47.1v1.17l-.3-.1a1.83,1.83,0,0,0-.49-.06q-1,0-1,1.17v1.74H396v1.15h-1.76v6.4h-1.57Zm4.87-2.61a.8.8,0,0,1-.29-.65.86.86,0,0,1,.29-.68,1,1,0,0,1,.72-.25,1.08,1.08,0,0,1,.73.25.86.86,0,0,1,.29.68.8.8,0,0,1-.29.65,1.18,1.18,0,0,1-.73.23A1.13,1.13,0,0,1,397.49,61.85Zm-.05,1.46H399v7.55h-1.55Z" transform="translate(-12 -18)" style="fill:#fff"/><path d="M403.37,74.7a6.33,6.33,0,0,1-.83-.19,4.86,4.86,0,0,1-.68-.25,3.51,3.51,0,0,1-.5-.29V72.61l.47.29c.19.1.4.2.64.3a4.45,4.45,0,0,0,.78.24,4.11,4.11,0,0,0,.89.1,2.18,2.18,0,0,0,2.44-2.5v-.86a3.18,3.18,0,0,1-2.23.8,3.6,3.6,0,0,1-1.47-.28,2.92,2.92,0,0,1-1.08-.77,3.47,3.47,0,0,1-.67-1.21,4.8,4.8,0,0,1-.23-1.55,5.09,5.09,0,0,1,.24-1.59,4,4,0,0,1,.7-1.29,3.28,3.28,0,0,1,1.09-.86,3.18,3.18,0,0,1,1.44-.31,2.93,2.93,0,0,1,1.37.29,4.22,4.22,0,0,1,1,.78,4.67,4.67,0,0,1,.08-.53c0-.15.06-.26.08-.35h1.31c0,.1,0,.3,0,.62s0,.7,0,1.16v6a4.45,4.45,0,0,1-.27,1.61,3.27,3.27,0,0,1-.77,1.17,3.4,3.4,0,0,1-1.23.71,5,5,0,0,1-1.6.24A6.56,6.56,0,0,1,403.37,74.7Zm2.39-5.14a3,3,0,0,0,.82-.62V65.26l-.26-.27a3.32,3.32,0,0,0-.39-.31,2.55,2.55,0,0,0-.55-.26,2.17,2.17,0,0,0-.71-.1,1.89,1.89,0,0,0-1.59.76,3.35,3.35,0,0,0-.58,2.09,3.11,3.11,0,0,0,.54,2,2,2,0,0,0,1.62.68A2.32,2.32,0,0,0,405.76,69.56Z" transform="translate(-12 -18)" style="fill:#fff"/><rect x="602" y="299" width="122" height="122" style="fill:#afcbff"/><path d="M626.29,371.22h1.44l-3.79,13.56H622.5Z" transform="translate(-12 -18)" style="fill:#0b1a37"/><path d="M629.89,383.22a2.42,2.42,0,0,1-.59-1.84V377.2h-1.38v-1.15h1.38v-1.7l1.56-.29v2h2v1.15h-2v4.13a1.34,1.34,0,0,0,.28,1,1.26,1.26,0,0,0,.89.27,2.6,2.6,0,0,0,.5,0,2.28,2.28,0,0,0,.38-.1v1.18a2.85,2.85,0,0,1-.5.14,5.32,5.32,0,0,1-.75.05A2.45,2.45,0,0,1,629.89,383.22Z" transform="translate(-12 -18)" style="fill:#0b1a37"/><path d="M639.49,376a2.1,2.1,0,0,1,.81.49,2.54,2.54,0,0,1,.55.87,3.56,3.56,0,0,1,.21,1.29v4.93h-1.57v-4.73a1.83,1.83,0,0,0-.41-1.36,1.51,1.51,0,0,0-1.06-.37,2,2,0,0,0-1.08.29,3.35,3.35,0,0,0-.89.8v5.37h-1.57V372.08H636v5.1a5,5,0,0,1,1-.93,2.57,2.57,0,0,1,1.45-.39A2.92,2.92,0,0,1,639.49,376Z" transform="translate(-12 -18)" style="fill:#0b1a37"/><path d="M645.06,383.51a3.44,3.44,0,0,1-1.26-.8,3.3,3.3,0,0,1-.79-1.25,4.76,4.76,0,0,1-.27-1.65,4.61,4.61,0,0,1,.26-1.61,3.42,3.42,0,0,1,1.92-2.06,3.9,3.9,0,0,1,1.53-.28,3.77,3.77,0,0,1,1.38.24,3,3,0,0,1,1.75,1.8,3.88,3.88,0,0,1,.24,1.4c0,.15,0,.3,0,.47s0,.27,0,.31h-5.45a2.94,2.94,0,0,0,.68,1.84,2.39,2.39,0,0,0,1.86.67,4.23,4.23,0,0,0,2.56-.79V383a3.66,3.66,0,0,1-1.26.59,5.51,5.51,0,0,1-1.48.19A4.52,4.52,0,0,1,645.06,383.51Zm3.24-4.45a2,2,0,0,0-.47-1.49,1.8,1.8,0,0,0-1.45-.58,1.82,1.82,0,0,0-1.4.58,2.43,2.43,0,0,0-.61,1.49Z" transform="translate(-12 -18)" style="fill:#0b1a37"/><path d="M662.66,383.6h-1.57v-4.75a2,2,0,0,0-.36-1.35,1.38,1.38,0,0,0-1-.36,1.71,1.71,0,0,0-1.07.34,3.59,3.59,0,0,0-.77.83v5.29h-1.53v-4.78a1.86,1.86,0,0,0-.37-1.32,1.35,1.35,0,0,0-1-.36,1.81,1.81,0,0,0-1,.31,3.37,3.37,0,0,0-.82.78v5.37h-1.57v-5.78c0-.44,0-.83,0-1.15s0-.53-.07-.62h1.44c0,.06.05.2.09.4a5.85,5.85,0,0,1,.1.77c.14-.16.28-.33.44-.49a2.75,2.75,0,0,1,.52-.44,2.6,2.6,0,0,1,.65-.31,2.57,2.57,0,0,1,.82-.12,2.39,2.39,0,0,1,1.42.37,2.26,2.26,0,0,1,.77,1.1,4.13,4.13,0,0,1,1-1.06,2.35,2.35,0,0,1,1.41-.41,2.48,2.48,0,0,1,1.85.68,2.9,2.9,0,0,1,.67,2.1Z" transform="translate(-12 -18)" style="fill:#0b1a37"/><path d="M666.67,383.51a3.32,3.32,0,0,1-1.25-.8,3.44,3.44,0,0,1-.8-1.25,4.76,4.76,0,0,1-.27-1.65,4.61,4.61,0,0,1,.27-1.61,3.42,3.42,0,0,1,.75-1.25,3.5,3.5,0,0,1,1.17-.81,3.88,3.88,0,0,1,1.52-.28,3.79,3.79,0,0,1,1.39.24,3.09,3.09,0,0,1,1.06.71,3,3,0,0,1,.69,1.09,4.47,4.47,0,0,1,.22,1.87c0,.16,0,.27,0,.31H666a3,3,0,0,0,.69,1.84,2.36,2.36,0,0,0,1.86.67,4.23,4.23,0,0,0,2.56-.79V383a3.84,3.84,0,0,1-1.26.59,5.56,5.56,0,0,1-1.48.19A4.53,4.53,0,0,1,666.67,383.51Zm3.25-4.45a2.09,2.09,0,0,0-.47-1.49,2,2,0,0,0-2.85,0,2.44,2.44,0,0,0-.62,1.49Z" transform="translate(-12 -18)" style="fill:#0b1a37"/><path d="M673,378.16h4.13v1.39H673Z" transform="translate(-12 -18)" style="fill:#0b1a37"/><path d="M680.48,382.7c0,.15,0,.28-.06.4s0,.2-.07.28l-.05.22H679c0-.09,0-.31,0-.68s0-.77,0-1.21v-9.63h1.57v4.67a4.24,4.24,0,0,1,1-.65,3.45,3.45,0,0,1,1.34-.24,3.24,3.24,0,0,1,1.38.28,3.08,3.08,0,0,1,1,.81,3.62,3.62,0,0,1,.65,1.23,5.24,5.24,0,0,1,.23,1.58,5,5,0,0,1-.25,1.59,4,4,0,0,1-.7,1.27,3,3,0,0,1-1.09.85,3.29,3.29,0,0,1-1.42.31A3.08,3.08,0,0,1,680.48,382.7Zm3.66-.85a3.36,3.36,0,0,0,.6-2.12,3,3,0,0,0-.59-2,2.07,2.07,0,0,0-1.64-.66,2.17,2.17,0,0,0-1,.24,4.12,4.12,0,0,0-.82.6v3.78l.25.26a3.31,3.31,0,0,0,.39.3,2.52,2.52,0,0,0,.52.26,2.17,2.17,0,0,0,.69.11A2,2,0,0,0,684.14,381.85Z" transform="translate(-12 -18)" style="fill:#0b1a37"/><path d="M689.62,383.64a2,2,0,0,1-.82-.49,2.16,2.16,0,0,1-.55-.86,3.48,3.48,0,0,1-.2-1.28v-5h1.55v4.72a1.84,1.84,0,0,0,.4,1.36,1.54,1.54,0,0,0,1.09.38,2.19,2.19,0,0,0,1.08-.29,3.23,3.23,0,0,0,.89-.81v-5.36h1.56v5.77c0,.45,0,.84,0,1.16l.06.62H693.3a2.14,2.14,0,0,1-.11-.38,4.81,4.81,0,0,1-.1-.79,5.21,5.21,0,0,1-1,.95,2.5,2.5,0,0,1-1.45.41A3.21,3.21,0,0,1,689.62,383.64Z" transform="translate(-12 -18)" style="fill:#0b1a37"/><path d="M697,374.58a.78.78,0,0,1-.29-.64.85.85,0,0,1,.29-.68,1,1,0,0,1,.72-.25,1.08,1.08,0,0,1,.73.25.83.83,0,0,1,.3.68.76.76,0,0,1-.3.64,1.13,1.13,0,0,1-.73.24A1.08,1.08,0,0,1,697,374.58Zm0,1.47h1.56v7.55h-1.56Z" transform="translate(-12 -18)" style="fill:#0b1a37"/><path d="M701.39,383.17a2.63,2.63,0,0,1-.54-1.86v-9.23h1.57v9.25a1.26,1.26,0,0,0,.26.9,1.11,1.11,0,0,0,.86.28,2.45,2.45,0,0,0,.48,0,1.59,1.59,0,0,0,.32-.07v1.15l-.44.11a4.34,4.34,0,0,1-.78.07A2.33,2.33,0,0,1,701.39,383.17Z" transform="translate(-12 -18)" style="fill:#0b1a37"/><path d="M707.18,383.5a3,3,0,0,1-1-.79,3.54,3.54,0,0,1-.67-1.21,5.24,5.24,0,0,1-.23-1.58,4.92,4.92,0,0,1,.25-1.62,4,4,0,0,1,.7-1.29,3.26,3.26,0,0,1,1.1-.85,3.31,3.31,0,0,1,1.42-.3,3,3,0,0,1,1.27.24,3.77,3.77,0,0,1,.94.67v-4.69h1.57v9.62c0,.44,0,.85,0,1.21s0,.59,0,.69h-1.33c0-.07,0-.16-.06-.26s0-.17-.06-.28,0-.21,0-.34a3.21,3.21,0,0,1-2.51,1.06A3.4,3.4,0,0,1,707.18,383.5Zm2.89-1.15a3.15,3.15,0,0,0,.84-.65V378a3.75,3.75,0,0,0-.28-.27,2.22,2.22,0,0,0-.4-.31,2.91,2.91,0,0,0-.53-.24,2.43,2.43,0,0,0-.68-.09,1.91,1.91,0,0,0-1.62.75,3.36,3.36,0,0,0-.57,2.08,3.26,3.26,0,0,0,.55,2,2,2,0,0,0,1.61.68A2.21,2.21,0,0,0,710.07,382.35Z" transform="translate(-12 -18)" style="fill:#0b1a37"/><path d="M716.45,383.51a3.39,3.39,0,0,1-2.05-2.05,4.76,4.76,0,0,1-.27-1.65,4.85,4.85,0,0,1,.26-1.61,3.42,3.42,0,0,1,1.92-2.06,3.94,3.94,0,0,1,1.53-.28,3.77,3.77,0,0,1,1.38.24,3.13,3.13,0,0,1,1.07.71,3,3,0,0,1,.69,1.09,3.88,3.88,0,0,1,.24,1.4c0,.15,0,.3,0,.47s0,.27,0,.31h-5.45a2.89,2.89,0,0,0,.69,1.84,2.35,2.35,0,0,0,1.85.67,4.21,4.21,0,0,0,2.56-.79V383a3.7,3.7,0,0,1-1.25.59,5.61,5.61,0,0,1-1.48.19A4.53,4.53,0,0,1,716.45,383.51Zm3.24-4.45a2,2,0,0,0-.47-1.49,2,2,0,0,0-2.84,0,2.38,2.38,0,0,0-.62,1.49Z" transform="translate(-12 -18)" style="fill:#0b1a37"/><path d="M723,377.84c0-.41,0-.77,0-1.08s0-.55-.07-.71h1.44c0,.07.05.21.09.41a4.44,4.44,0,0,1,.1.68,3.48,3.48,0,0,1,.84-.88,1.88,1.88,0,0,1,1.19-.4,2.18,2.18,0,0,1,.61.07,2.66,2.66,0,0,1,.38.13v1.38a3.15,3.15,0,0,0-.44-.17,2.26,2.26,0,0,0-.69-.09,2.39,2.39,0,0,0-1.84.88v5.54H723Z" transform="translate(-12 -18)" style="fill:#0b1a37"/><rect x="700" width="220" height="68" style="fill:#2358ba"/><path d="M732.31,43.94h1.44L730,57.5h-1.44Z" transform="translate(-12 -18)" style="fill:#fff"/><path d="M734.05,50.69c0-.46,0-.87,0-1.23s0-.6-.06-.69h1.33c0,.08.05.17.08.27s0,.18.06.29,0,.22.05.35a4.43,4.43,0,0,1,1-.8,2.78,2.78,0,0,1,1.37-.3,3.46,3.46,0,0,1,1.42.28,3.25,3.25,0,0,1,1.09.8,3.65,3.65,0,0,1,.69,1.24,4.94,4.94,0,0,1,.24,1.58,5,5,0,0,1-.25,1.59,3.83,3.83,0,0,1-.71,1.27,3.05,3.05,0,0,1-1.1.85,3.39,3.39,0,0,1-1.45.31,3,3,0,0,1-1.25-.23,2.88,2.88,0,0,1-.92-.64v4.43h-1.57Zm5,3.92a3.44,3.44,0,0,0,.59-2.13,3,3,0,0,0-.58-2,2.29,2.29,0,0,0-2.67-.43,3.53,3.53,0,0,0-.81.63v3.77a3.33,3.33,0,0,0,.79.68,1.84,1.84,0,0,0,1,.27A2,2,0,0,0,739.09,54.61Z" transform="translate(-12 -18)" style="fill:#fff"/><path d="M743.06,50.56c0-.41,0-.77,0-1.08s0-.55-.07-.71h1.44c0,.07.05.21.09.41a6.14,6.14,0,0,1,.1.68,3.48,3.48,0,0,1,.84-.88,1.86,1.86,0,0,1,1.19-.4,2.22,2.22,0,0,1,.61.07,2.66,2.66,0,0,1,.38.13v1.38a3.75,3.75,0,0,0-.44-.17,2.31,2.31,0,0,0-.69-.09,2.33,2.33,0,0,0-1,.23,2.51,2.51,0,0,0-.84.65v5.54h-1.56Z" transform="translate(-12 -18)" style="fill:#fff"/><path d="M749.1,47.3a.77.77,0,0,1-.28-.64.84.84,0,0,1,.28-.68,1.08,1.08,0,0,1,.73-.25,1.05,1.05,0,0,1,.72.25.83.83,0,0,1,.3.68.76.76,0,0,1-.3.64,1.1,1.1,0,0,1-.72.24A1.13,1.13,0,0,1,749.1,47.3Zm0,1.47h1.55v7.55h-1.55Z" transform="translate(-12 -18)" style="fill:#fff"/><path d="M753.54,56.34a4.1,4.1,0,0,1-1-.39V54.67a4.26,4.26,0,0,0,1.14.53,4,4,0,0,0,1.2.19,2,2,0,0,0,1.1-.26.89.89,0,0,0,.38-.79.73.73,0,0,0-.15-.48,1.4,1.4,0,0,0-.41-.34,3.48,3.48,0,0,0-.58-.27l-.68-.27a4.12,4.12,0,0,1-1.39-.89,1.91,1.91,0,0,1-.5-1.37,1.9,1.9,0,0,1,.76-1.56,2.57,2.57,0,0,1,.86-.43,3.71,3.71,0,0,1,1.08-.15,4.76,4.76,0,0,1,1.27.15,3.41,3.41,0,0,1,.86.34V50.3a3.33,3.33,0,0,0-1-.43,4.25,4.25,0,0,0-1.11-.16,1.52,1.52,0,0,0-.93.24.81.81,0,0,0-.32.67.87.87,0,0,0,.11.44,1.19,1.19,0,0,0,.32.31,3.31,3.31,0,0,0,.5.26l.64.27c.29.13.56.26.82.4a3.11,3.11,0,0,1,.69.47,2.08,2.08,0,0,1,.47.63,2.19,2.19,0,0,1-.62,2.5,3.46,3.46,0,0,1-2.19.61A4.87,4.87,0,0,1,753.54,56.34Z" transform="translate(-12 -18)" style="fill:#fff"/><path d="M770.67,56.32H769.1V51.57a2,2,0,0,0-.35-1.35,1.4,1.4,0,0,0-1-.36,1.69,1.69,0,0,0-1.07.34,3.38,3.38,0,0,0-.77.83v5.29h-1.54V51.54a1.86,1.86,0,0,0-.36-1.32,1.36,1.36,0,0,0-1-.36,1.81,1.81,0,0,0-1,.31,3.41,3.41,0,0,0-.83.78v5.37h-1.57V50.54c0-.44,0-.83,0-1.15a4.66,4.66,0,0,0-.07-.62h1.44a3.64,3.64,0,0,1,.1.4,6.08,6.08,0,0,1,.09.77l.44-.49a2.82,2.82,0,0,1,.53-.44,2.53,2.53,0,0,1,.64-.31,2.64,2.64,0,0,1,.83-.12A2.36,2.36,0,0,1,765,49a2.21,2.21,0,0,1,.78,1.1,4.13,4.13,0,0,1,1-1.06,2.33,2.33,0,0,1,1.41-.41,2.48,2.48,0,0,1,1.85.68,2.94,2.94,0,0,1,.66,2.1Z" transform="translate(-12 -18)" style="fill:#fff"/><path d="M772.66,50.88h4.12v1.39h-4.12Z" transform="translate(-12 -18)" style="fill:#fff"/><path d="M779.36,55.89a2.63,2.63,0,0,1-.54-1.86V44.8h1.56v9.25a1.26,1.26,0,0,0,.27.9,1.12,1.12,0,0,0,.85.28,2.56,2.56,0,0,0,.49,0,1.31,1.31,0,0,0,.31-.07v1.15l-.43.11a4.34,4.34,0,0,1-.78.07A2.33,2.33,0,0,1,779.36,55.89Z" transform="translate(-12 -18)" style="fill:#fff"/><path d="M783.79,55.82a2.28,2.28,0,0,1-.67-1.74,2.06,2.06,0,0,1,.22-.94,2.33,2.33,0,0,1,.61-.76,3,3,0,0,1,1-.5,4.91,4.91,0,0,1,2.77,0v-.64a1.62,1.62,0,0,0-.4-1.17,1.87,1.87,0,0,0-1.33-.4,3.86,3.86,0,0,0-1.39.22,6.09,6.09,0,0,0-.87.36V49.07a4.83,4.83,0,0,1,.94-.32,6.25,6.25,0,0,1,1.59-.17,3.46,3.46,0,0,1,2.24.63,2.31,2.31,0,0,1,.77,1.89v3.22a1.47,1.47,0,0,0,.17.82.51.51,0,0,0,.45.25.8.8,0,0,0,.23,0l.16-.06v.91a1.33,1.33,0,0,1-.24.11l-.31.06a1.68,1.68,0,0,1-.41,0,1.81,1.81,0,0,1-.95-.24,1.24,1.24,0,0,1-.53-.85,2.71,2.71,0,0,1-.92.84,2.85,2.85,0,0,1-1.33.28A2.5,2.5,0,0,1,783.79,55.82ZM787,55a1.85,1.85,0,0,0,.66-.73V52.83a3.26,3.26,0,0,0-1.19-.17,1.86,1.86,0,0,0-1.33.4,1.27,1.27,0,0,0-.43,1,1.21,1.21,0,0,0,.34.93,1.3,1.3,0,0,0,1,.33A1.69,1.69,0,0,0,787,55Z" transform="translate(-12 -18)" style="fill:#fff"/><path d="M792.91,55.42c0,.15,0,.28-.06.4a1.63,1.63,0,0,1-.07.28c0,.09,0,.17,0,.22h-1.3c0-.09,0-.31,0-.68s0-.77,0-1.21V44.8h1.57v4.67a4.24,4.24,0,0,1,1-.65,3.45,3.45,0,0,1,1.34-.24,3.29,3.29,0,0,1,1.39.28,3.18,3.18,0,0,1,1,.81,3.78,3.78,0,0,1,.64,1.23,5.24,5.24,0,0,1,.23,1.58,4.74,4.74,0,0,1-.25,1.59,4,4,0,0,1-.7,1.27,3,3,0,0,1-1.08.85,3.37,3.37,0,0,1-1.43.31A3.08,3.08,0,0,1,792.91,55.42Zm3.67-.85a3.42,3.42,0,0,0,.59-2.12,3,3,0,0,0-.59-2,2.07,2.07,0,0,0-1.64-.66,2.2,2.2,0,0,0-1,.24,4.12,4.12,0,0,0-.82.6V54.4l.25.26a3.31,3.31,0,0,0,.39.3,2.62,2.62,0,0,0,.53.26,2.06,2.06,0,0,0,.68.11A2,2,0,0,0,796.58,54.57Z" transform="translate(-12 -18)" style="fill:#fff"/><path d="M801.1,56.34a4,4,0,0,1-1-.39V54.67a4.34,4.34,0,0,0,1.13.53,4,4,0,0,0,1.2.19,2,2,0,0,0,1.11-.26.91.91,0,0,0,.38-.79.73.73,0,0,0-.15-.48,1.4,1.4,0,0,0-.41-.34,3.48,3.48,0,0,0-.58-.27L802.1,53a4.17,4.17,0,0,1-1.4-.89,1.9,1.9,0,0,1-.49-1.37,1.85,1.85,0,0,1,.2-.89,2,2,0,0,1,.56-.67,2.52,2.52,0,0,1,.85-.43,3.83,3.83,0,0,1,1.09-.15,4.86,4.86,0,0,1,1.27.15,3.41,3.41,0,0,1,.86.34V50.3a3.46,3.46,0,0,0-.95-.43,4.25,4.25,0,0,0-1.11-.16,1.52,1.52,0,0,0-.93.24.78.78,0,0,0-.32.67.87.87,0,0,0,.11.44,1.19,1.19,0,0,0,.32.31,2.89,2.89,0,0,0,.5.26c.19.09.4.18.64.27s.56.26.82.4a3.11,3.11,0,0,1,.69.47,2,2,0,0,1,.46.63,2.16,2.16,0,0,1-.61,2.5,3.51,3.51,0,0,1-2.2.61A4.92,4.92,0,0,1,801.1,56.34Z" transform="translate(-12 -18)" style="fill:#fff"/><path d="M810.08,43.94h1.44L807.73,57.5h-1.44Z" transform="translate(-12 -18)" style="fill:#fff"/><path d="M812,55.82a2.28,2.28,0,0,1-.67-1.74,2.06,2.06,0,0,1,.22-.94,2.21,2.21,0,0,1,.61-.76,3,3,0,0,1,1-.5,4.91,4.91,0,0,1,2.77,0v-.64a1.62,1.62,0,0,0-.4-1.17,1.87,1.87,0,0,0-1.33-.4,3.86,3.86,0,0,0-1.39.22,6.09,6.09,0,0,0-.87.36V49.07a4.83,4.83,0,0,1,.94-.32,6.25,6.25,0,0,1,1.59-.17,3.46,3.46,0,0,1,2.24.63,2.31,2.31,0,0,1,.77,1.89v3.22a1.47,1.47,0,0,0,.17.82.51.51,0,0,0,.45.25.8.8,0,0,0,.23,0l.16-.06v.91a1.33,1.33,0,0,1-.24.11l-.31.06a1.68,1.68,0,0,1-.41,0,1.81,1.81,0,0,1-1-.24,1.28,1.28,0,0,1-.53-.85,2.71,2.71,0,0,1-.92.84,2.85,2.85,0,0,1-1.33.28A2.5,2.5,0,0,1,812,55.82Zm3.25-.8a1.85,1.85,0,0,0,.66-.73V52.83a3.26,3.26,0,0,0-1.19-.17,1.86,1.86,0,0,0-1.33.4,1.27,1.27,0,0,0-.43,1,1.21,1.21,0,0,0,.34.93,1.3,1.3,0,0,0,1,.33A1.69,1.69,0,0,0,815.2,55Z" transform="translate(-12 -18)" style="fill:#fff"/><path d="M819.68,50.69c0-.46,0-.87,0-1.23s0-.6-.06-.69h1.33c0,.08.05.17.08.27s0,.18.06.29,0,.22.05.35a4.43,4.43,0,0,1,1-.8,2.78,2.78,0,0,1,1.37-.3,3.43,3.43,0,0,1,1.42.28,3.25,3.25,0,0,1,1.09.8,3.65,3.65,0,0,1,.69,1.24,4.94,4.94,0,0,1,.24,1.58,4.74,4.74,0,0,1-.25,1.59,4,4,0,0,1-.7,1.27,3.17,3.17,0,0,1-1.11.85,3.39,3.39,0,0,1-1.45.31,3,3,0,0,1-1.25-.23,3,3,0,0,1-.92-.64v4.43h-1.57Zm5,3.92a3.44,3.44,0,0,0,.59-2.13,3,3,0,0,0-.58-2,2.29,2.29,0,0,0-2.67-.43,3.76,3.76,0,0,0-.81.63v3.77a3.33,3.33,0,0,0,.79.68,1.85,1.85,0,0,0,1,.27A2,2,0,0,0,824.72,54.61Z" transform="translate(-12 -18)" style="fill:#fff"/><path d="M828.86,47.3a.77.77,0,0,1-.28-.64.84.84,0,0,1,.28-.68,1.18,1.18,0,0,1,1.45,0,.83.83,0,0,1,.3.68.76.76,0,0,1-.3.64,1.22,1.22,0,0,1-1.45,0Zm0,1.47h1.55v7.55h-1.55Z" transform="translate(-12 -18)" style="fill:#fff"/><path d="M835.65,43.94h1.44L833.3,57.5h-1.44Z" transform="translate(-12 -18)" style="fill:#fff"/><path d="M837.41,48.77H839l2.1,5.18,2-5.18h1.62l-3.28,7.61h-.82Z" transform="translate(-12 -18)" style="fill:#fff"/><path d="M847,46.35h-1.89V45.12h3.41v11.2H847Z" transform="translate(-12 -18)" style="fill:#fff"/><path d="M854.16,43.94h1.44L851.81,57.5h-1.44Z" transform="translate(-12 -18)" style="fill:#fff"/><path d="M856.94,50.56c0-.41,0-.77,0-1.08s0-.55-.07-.71h1.44c0,.07.06.21.1.41a6.25,6.25,0,0,1,.09.68,3.87,3.87,0,0,1,.84-.88,1.91,1.91,0,0,1,1.2-.4,2.15,2.15,0,0,1,.6.07l.39.13v1.38l-.44-.17a2.33,2.33,0,0,0-.7-.09,2.37,2.37,0,0,0-1,.23,2.47,2.47,0,0,0-.83.65v5.54h-1.57Z" transform="translate(-12 -18)" style="fill:#fff"/><path d="M864.67,56.23a3.46,3.46,0,0,1-2-2,4.76,4.76,0,0,1-.27-1.65,4.61,4.61,0,0,1,.27-1.61,3.42,3.42,0,0,1,.75-1.25,3.5,3.5,0,0,1,1.17-.81,3.88,3.88,0,0,1,1.52-.28,3.79,3.79,0,0,1,1.39.24,3.09,3.09,0,0,1,1.06.71,3,3,0,0,1,.69,1.09,3.88,3.88,0,0,1,.24,1.4c0,.15,0,.3,0,.47s0,.27,0,.31H864a2.89,2.89,0,0,0,.69,1.84,2.36,2.36,0,0,0,1.86.67,4.23,4.23,0,0,0,2.56-.79v1.21a3.84,3.84,0,0,1-1.26.59,5.56,5.56,0,0,1-1.48.19A4.53,4.53,0,0,1,864.67,56.23Zm3.25-4.45a2.09,2.09,0,0,0-.47-1.49,2,2,0,0,0-2.85,0,2.44,2.44,0,0,0-.62,1.49Z" transform="translate(-12 -18)" style="fill:#fff"/><path d="M871.93,56.34a4,4,0,0,1-1-.39V54.67a4.34,4.34,0,0,0,1.13.53,4,4,0,0,0,1.2.19,2,2,0,0,0,1.11-.26.91.91,0,0,0,.38-.79.73.73,0,0,0-.15-.48,1.4,1.4,0,0,0-.41-.34,3.48,3.48,0,0,0-.58-.27l-.68-.27a4.27,4.27,0,0,1-1.4-.89,1.9,1.9,0,0,1-.49-1.37,1.9,1.9,0,0,1,.76-1.56,2.48,2.48,0,0,1,.86-.43,3.71,3.71,0,0,1,1.08-.15,4.86,4.86,0,0,1,1.27.15,3.41,3.41,0,0,1,.86.34V50.3a3.46,3.46,0,0,0-1-.43,4.25,4.25,0,0,0-1.11-.16,1.52,1.52,0,0,0-.93.24.81.81,0,0,0-.32.67.87.87,0,0,0,.11.44,1.19,1.19,0,0,0,.32.31,2.89,2.89,0,0,0,.5.26c.19.09.4.18.64.27s.56.26.82.4a3.11,3.11,0,0,1,.69.47,1.9,1.9,0,0,1,.46.63,2.16,2.16,0,0,1-.61,2.5,3.51,3.51,0,0,1-2.2.61A4.92,4.92,0,0,1,871.93,56.34Z" transform="translate(-12 -18)" style="fill:#fff"/><path d="M879.74,56.21a3.53,3.53,0,0,1-1.2-.83,4,4,0,0,1-.77-1.27,4.94,4.94,0,0,1,0-3.22,3.62,3.62,0,0,1,.77-1.24,3.35,3.35,0,0,1,1.21-.79,4.23,4.23,0,0,1,1.58-.28,4.13,4.13,0,0,1,1.56.28,3.35,3.35,0,0,1,1.19.79,3.47,3.47,0,0,1,.77,1.24,4.94,4.94,0,0,1,0,3.22,3.49,3.49,0,0,1-2,2.1,4.31,4.31,0,0,1-3.16,0ZM882.22,55a1.89,1.89,0,0,0,.69-.57,2.59,2.59,0,0,0,.44-.86,3.66,3.66,0,0,0,.15-1.08,3,3,0,0,0-.59-1.95,2,2,0,0,0-1.58-.7,2,2,0,0,0-1.61.7,3,3,0,0,0-.6,1.95,3.66,3.66,0,0,0,.15,1.08,2.59,2.59,0,0,0,.44.86,1.84,1.84,0,0,0,.7.57,2,2,0,0,0,.92.21A1.86,1.86,0,0,0,882.22,55Z" transform="translate(-12 -18)" style="fill:#fff"/><path d="M888.37,56.36a2.09,2.09,0,0,1-.82-.49A2.28,2.28,0,0,1,887,55a3.7,3.7,0,0,1-.2-1.28v-5h1.55v4.72a1.84,1.84,0,0,0,.4,1.36,1.54,1.54,0,0,0,1.09.38,2.19,2.19,0,0,0,1.08-.29,3.23,3.23,0,0,0,.89-.81V48.77h1.56v5.77c0,.45,0,.84,0,1.16s0,.52.05.62h-1.42a3.71,3.71,0,0,1-.11-.38,4.81,4.81,0,0,1-.1-.79,5.21,5.21,0,0,1-1,1,2.5,2.5,0,0,1-1.45.41A3.21,3.21,0,0,1,888.37,56.36Z" transform="translate(-12 -18)" style="fill:#fff"/><path d="M895.57,50.56c0-.41,0-.77,0-1.08s0-.55-.07-.71h1.44c0,.07.05.21.09.41a6.14,6.14,0,0,1,.1.68,3.48,3.48,0,0,1,.84-.88,1.86,1.86,0,0,1,1.19-.4,2.22,2.22,0,0,1,.61.07,2.66,2.66,0,0,1,.38.13v1.38a3.75,3.75,0,0,0-.44-.17,2.31,2.31,0,0,0-.69-.09,2.33,2.33,0,0,0-1,.23,2.51,2.51,0,0,0-.84.65v5.54h-1.56Z" transform="translate(-12 -18)" style="fill:#fff"/><path d="M903.28,56.22a3.59,3.59,0,0,1-1.23-.8,3.77,3.77,0,0,1-.8-1.25,4.68,4.68,0,0,1-.28-1.63,4.52,4.52,0,0,1,.29-1.64,3.6,3.6,0,0,1,.81-1.26,3.38,3.38,0,0,1,1.25-.79,4.59,4.59,0,0,1,1.62-.27,4.92,4.92,0,0,1,1.25.15,3.47,3.47,0,0,1,.9.34v1.38a4,4,0,0,0-.85-.44,3,3,0,0,0-1.15-.2,2.3,2.3,0,0,0-1.85.73,3,3,0,0,0-.63,2,2.93,2.93,0,0,0,.64,2,2.27,2.27,0,0,0,1.82.73,3.33,3.33,0,0,0,1.14-.18,3.15,3.15,0,0,0,.88-.44V56a3.78,3.78,0,0,1-1,.38,5.22,5.22,0,0,1-1.23.13A4.11,4.11,0,0,1,903.28,56.22Z" transform="translate(-12 -18)" style="fill:#fff"/><path d="M910.72,56.23a3.39,3.39,0,0,1-2.05-2,4.76,4.76,0,0,1-.27-1.65,4.85,4.85,0,0,1,.26-1.61,3.42,3.42,0,0,1,1.92-2.06,3.94,3.94,0,0,1,1.53-.28,3.77,3.77,0,0,1,1.38.24,3,3,0,0,1,1.07.71,3,3,0,0,1,.69,1.09,3.88,3.88,0,0,1,.24,1.4c0,.15,0,.3,0,.47s0,.27,0,.31H910a2.89,2.89,0,0,0,.69,1.84,2.35,2.35,0,0,0,1.85.67,4.21,4.21,0,0,0,2.56-.79v1.21a3.7,3.7,0,0,1-1.25.59,5.61,5.61,0,0,1-1.48.19A4.53,4.53,0,0,1,910.72,56.23ZM914,51.78a2,2,0,0,0-.48-1.49,2,2,0,0,0-2.84,0,2.38,2.38,0,0,0-.62,1.49Z" transform="translate(-12 -18)" style="fill:#fff"/><rect x="602" y="446" width="122" height="122" style="fill:#afcbff"/><path d="M633.63,516.94h1.44l-3.79,13.56h-1.44Z" transform="translate(-12 -18)" style="fill:#0b1a37"/><path d="M638.26,529.22a3.63,3.63,0,0,1-1.24-.8,3.75,3.75,0,0,1-.79-1.25,4.68,4.68,0,0,1-.28-1.63,4.52,4.52,0,0,1,.29-1.64,3.6,3.6,0,0,1,.81-1.26,3.3,3.3,0,0,1,1.25-.79,4.59,4.59,0,0,1,1.62-.27,5,5,0,0,1,1.25.15,3.38,3.38,0,0,1,.89.34v1.38a3.64,3.64,0,0,0-.84-.44,3.07,3.07,0,0,0-1.16-.2,2.28,2.28,0,0,0-1.84.73,2.92,2.92,0,0,0-.64,2,3,3,0,0,0,.64,2,2.3,2.3,0,0,0,1.83.73,3.37,3.37,0,0,0,1.14-.18,3,3,0,0,0,.87-.44V529a3.57,3.57,0,0,1-1,.38,5.34,5.34,0,0,1-1.23.13A4.11,4.11,0,0,1,638.26,529.22Z" transform="translate(-12 -18)" style="fill:#0b1a37"/><path d="M645.6,529.21a3.68,3.68,0,0,1-1.2-.83,3.79,3.79,0,0,1-.77-1.27,4.94,4.94,0,0,1,0-3.22,3.47,3.47,0,0,1,.77-1.24,3.26,3.26,0,0,1,1.21-.79,4.18,4.18,0,0,1,1.57-.28,4.05,4.05,0,0,1,1.56.28,3.39,3.39,0,0,1,1.2.79,3.45,3.45,0,0,1,.76,1.24,4.41,4.41,0,0,1,.28,1.62,4.59,4.59,0,0,1-.27,1.6,3.62,3.62,0,0,1-.76,1.27,3.68,3.68,0,0,1-1.2.83,4,4,0,0,1-1.57.3A4,4,0,0,1,645.6,529.21Zm2.48-1.19a1.89,1.89,0,0,0,.69-.57,2.59,2.59,0,0,0,.44-.86,3.66,3.66,0,0,0,.15-1.08,3,3,0,0,0-.59-2,2,2,0,0,0-1.59-.7,2,2,0,0,0-1.6.7,2.93,2.93,0,0,0-.6,2,3.66,3.66,0,0,0,.15,1.08,2.59,2.59,0,0,0,.44.86,1.89,1.89,0,0,0,.69.57,2,2,0,0,0,.92.21A1.93,1.93,0,0,0,648.08,528Z" transform="translate(-12 -18)" style="fill:#0b1a37"/><path d="M663.79,529.32h-1.57v-4.75a2,2,0,0,0-.36-1.35,1.37,1.37,0,0,0-1-.36,1.72,1.72,0,0,0-1.08.34,3.55,3.55,0,0,0-.76.83v5.29h-1.54v-4.78a1.81,1.81,0,0,0-.37-1.32,1.32,1.32,0,0,0-1-.36,1.78,1.78,0,0,0-1,.31,3.41,3.41,0,0,0-.83.78v5.37H652.7v-5.78c0-.44,0-.83,0-1.15a4.66,4.66,0,0,0-.07-.62H654a3.64,3.64,0,0,1,.1.4,6.08,6.08,0,0,1,.09.77l.44-.49a3.11,3.11,0,0,1,.52-.44,2.78,2.78,0,0,1,.65-.31,2.64,2.64,0,0,1,.83-.12,2.36,2.36,0,0,1,1.41.37,2.21,2.21,0,0,1,.78,1.1,4.09,4.09,0,0,1,1-1.06,2.38,2.38,0,0,1,1.42-.41,2.48,2.48,0,0,1,1.85.68,2.94,2.94,0,0,1,.66,2.1Z" transform="translate(-12 -18)" style="fill:#0b1a37"/><path d="M665.87,523.69c0-.46,0-.87,0-1.23s0-.6-.06-.69h1.33c0,.08,0,.17.08.27s0,.18.06.29,0,.22.06.35a4.18,4.18,0,0,1,1-.8,2.78,2.78,0,0,1,1.37-.3,3.43,3.43,0,0,1,1.42.28,3.25,3.25,0,0,1,1.09.8,3.56,3.56,0,0,1,.69,1.24,4.94,4.94,0,0,1,.24,1.58,4.74,4.74,0,0,1-.25,1.59,3.81,3.81,0,0,1-.7,1.27,3.08,3.08,0,0,1-1.11.85,3.39,3.39,0,0,1-1.45.31,3,3,0,0,1-1.25-.23,3,3,0,0,1-.92-.64v4.43h-1.57Zm5,3.92a3.37,3.37,0,0,0,.59-2.13,3,3,0,0,0-.58-2,2,2,0,0,0-1.64-.68,2,2,0,0,0-1,.25,3.81,3.81,0,0,0-.82.63v3.77a3.53,3.53,0,0,0,.79.68,1.85,1.85,0,0,0,1,.27A2,2,0,0,0,670.91,527.61Z" transform="translate(-12 -18)" style="fill:#0b1a37"/><path d="M676.64,529.21a3.68,3.68,0,0,1-1.2-.83,3.79,3.79,0,0,1-.77-1.27,4.94,4.94,0,0,1,0-3.22,3.47,3.47,0,0,1,.77-1.24,3.26,3.26,0,0,1,1.21-.79,4.18,4.18,0,0,1,1.57-.28,4.05,4.05,0,0,1,1.56.28,3.39,3.39,0,0,1,1.2.79,3.45,3.45,0,0,1,.76,1.24,4.41,4.41,0,0,1,.28,1.62,4.59,4.59,0,0,1-.27,1.6,3.62,3.62,0,0,1-.76,1.27,3.68,3.68,0,0,1-1.2.83,4,4,0,0,1-1.57.3A4,4,0,0,1,676.64,529.21Zm2.48-1.19a2,2,0,0,0,.69-.57,2.59,2.59,0,0,0,.44-.86,3.66,3.66,0,0,0,.15-1.08,3,3,0,0,0-.59-2,2,2,0,0,0-1.59-.7,2,2,0,0,0-1.61.7,3,3,0,0,0-.59,2,3.66,3.66,0,0,0,.15,1.08,2.59,2.59,0,0,0,.44.86,1.89,1.89,0,0,0,.69.57,2,2,0,0,0,.92.21A1.93,1.93,0,0,0,679.12,528Z" transform="translate(-12 -18)" style="fill:#0b1a37"/><path d="M683.74,523.56c0-.45,0-.83,0-1.16a4.89,4.89,0,0,0-.07-.63h1.44c0,.06,0,.2.1.4a6.08,6.08,0,0,1,.09.77,5.54,5.54,0,0,1,1-1,2.5,2.5,0,0,1,1.47-.41,2.88,2.88,0,0,1,1,.16,2.1,2.1,0,0,1,.81.49,2.54,2.54,0,0,1,.55.87,3.56,3.56,0,0,1,.21,1.29v4.93h-1.57v-4.73a1.83,1.83,0,0,0-.41-1.36,1.49,1.49,0,0,0-1.06-.37,2,2,0,0,0-1.08.29,3.51,3.51,0,0,0-.89.8v5.37h-1.57Z" transform="translate(-12 -18)" style="fill:#0b1a37"/><path d="M694.32,529.23a3.44,3.44,0,0,1-1.26-.8,3.51,3.51,0,0,1-.79-1.25,4.76,4.76,0,0,1-.27-1.65,4.85,4.85,0,0,1,.26-1.61,3.49,3.49,0,0,1,1.92-2.06,4,4,0,0,1,1.53-.28,3.86,3.86,0,0,1,1.39.24,3.09,3.09,0,0,1,1.06.71,3,3,0,0,1,.69,1.09,3.88,3.88,0,0,1,.24,1.4c0,.15,0,.3,0,.47s0,.27,0,.31H693.6a2.89,2.89,0,0,0,.69,1.84,2.35,2.35,0,0,0,1.85.67,4.21,4.21,0,0,0,2.56-.79v1.21a3.7,3.7,0,0,1-1.25.59,5.61,5.61,0,0,1-1.48.19A4.53,4.53,0,0,1,694.32,529.23Zm3.25-4.45a2.09,2.09,0,0,0-.47-1.49,1.81,1.81,0,0,0-1.45-.58,1.79,1.79,0,0,0-1.4.58,2.38,2.38,0,0,0-.62,1.49Z" transform="translate(-12 -18)" style="fill:#0b1a37"/><path d="M700.83,523.56c0-.45,0-.83,0-1.16s0-.54-.07-.63h1.44c0,.06.05.2.1.4a6.08,6.08,0,0,1,.09.77,5.54,5.54,0,0,1,1-1,2.5,2.5,0,0,1,1.47-.41,2.92,2.92,0,0,1,1,.16,2.1,2.1,0,0,1,.81.49,2.54,2.54,0,0,1,.55.87,3.56,3.56,0,0,1,.21,1.29v4.93h-1.57v-4.73a1.83,1.83,0,0,0-.41-1.36,1.51,1.51,0,0,0-1.06-.37,2,2,0,0,0-1.08.29,3.51,3.51,0,0,0-.89.8v5.37h-1.57Z" transform="translate(-12 -18)" style="fill:#0b1a37"/><path d="M710.65,528.94a2.46,2.46,0,0,1-.59-1.84v-4.18h-1.37v-1.15h1.37v-1.7l1.57-.29v2h2v1.15h-2v4.13a1.3,1.3,0,0,0,.28,1,1.25,1.25,0,0,0,.89.27,2.43,2.43,0,0,0,.49,0,2.74,2.74,0,0,0,.39-.1v1.18a3.13,3.13,0,0,1-.5.14,5.32,5.32,0,0,1-.75,0A2.49,2.49,0,0,1,710.65,528.94Z" transform="translate(-12 -18)" style="fill:#0b1a37"/><path d="M715.82,529.34a4.26,4.26,0,0,1-1-.39v-1.28a4.41,4.41,0,0,0,1.14.53,4,4,0,0,0,1.2.19,2,2,0,0,0,1.11-.26.91.91,0,0,0,.38-.79.73.73,0,0,0-.15-.48,1.4,1.4,0,0,0-.41-.34,3.9,3.9,0,0,0-.58-.27l-.69-.27a4.22,4.22,0,0,1-1.39-.89,1.9,1.9,0,0,1-.49-1.37,1.85,1.85,0,0,1,.2-.89,2,2,0,0,1,.56-.67,2.52,2.52,0,0,1,.85-.43,3.78,3.78,0,0,1,1.09-.15,4.86,4.86,0,0,1,1.27.15,3.41,3.41,0,0,1,.86.34v1.23a3.46,3.46,0,0,0-1-.43,3.89,3.89,0,0,0-1.12-.16,1.51,1.51,0,0,0-.92.24.89.89,0,0,0-.21,1.11,1.06,1.06,0,0,0,.32.31,3.18,3.18,0,0,0,.49.26l.65.27c.28.13.56.26.82.4a3.11,3.11,0,0,1,.69.47,2,2,0,0,1,.46.63,2.15,2.15,0,0,1-.62,2.5,3.46,3.46,0,0,1-2.19.61A4.92,4.92,0,0,1,715.82,529.34Z" transform="translate(-12 -18)" style="fill:#0b1a37"/><rect x="771.5" y="299" width="122" height="122" style="fill:#afcbff"/><path d="M819.64,369.94h1.44l-3.79,13.56h-1.45Z" transform="translate(-12 -18)" style="fill:#0b1a37"/><path d="M824.28,382.23a3.44,3.44,0,0,1-1.26-.8,3.3,3.3,0,0,1-.79-1.25,4.76,4.76,0,0,1-.27-1.65,4.61,4.61,0,0,1,.26-1.61,3.42,3.42,0,0,1,1.92-2.06,3.9,3.9,0,0,1,1.53-.28,3.77,3.77,0,0,1,1.38.24,3.13,3.13,0,0,1,1.07.71,3,3,0,0,1,.68,1.09A3.88,3.88,0,0,1,829,378c0,.15,0,.3,0,.47s0,.27,0,.31h-5.45a2.94,2.94,0,0,0,.68,1.84,2.39,2.39,0,0,0,1.86.67,4.21,4.21,0,0,0,2.56-.79v1.21a3.66,3.66,0,0,1-1.26.59,5.51,5.51,0,0,1-1.48.19A4.52,4.52,0,0,1,824.28,382.23Zm3.24-4.45a2,2,0,0,0-.47-1.49,2,2,0,0,0-2.84,0,2.38,2.38,0,0,0-.62,1.49Z" transform="translate(-12 -18)" style="fill:#0b1a37"/><path d="M832.76,378.4l-2.69-3.63h1.77l1.78,2.54,1.76-2.54h1.74l-2.7,3.63,2.91,3.92h-1.76l-2-2.82-2,2.82h-1.73Z" transform="translate(-12 -18)" style="fill:#0b1a37"/><path d="M838.48,376.69c0-.46,0-.87,0-1.23s0-.6-.05-.69h1.33a2,2,0,0,0,.08.27,2.18,2.18,0,0,1,.05.29c0,.1,0,.22.06.35a4.61,4.61,0,0,1,1-.8,2.81,2.81,0,0,1,1.37-.3,3.51,3.51,0,0,1,1.43.28,3.21,3.21,0,0,1,1.08.8,3.65,3.65,0,0,1,.69,1.24,4.94,4.94,0,0,1,.24,1.58,4.74,4.74,0,0,1-.25,1.59,3.81,3.81,0,0,1-.7,1.27,3.05,3.05,0,0,1-1.1.85,3.46,3.46,0,0,1-1.45.31,2.83,2.83,0,0,1-2.18-.87v4.43h-1.57Zm5,3.92a3.37,3.37,0,0,0,.6-2.13,3,3,0,0,0-.59-2,2.28,2.28,0,0,0-2.66-.43,3.81,3.81,0,0,0-.82.63v3.77a3.53,3.53,0,0,0,.79.68,1.87,1.87,0,0,0,1,.27A2,2,0,0,0,843.52,380.61Z" transform="translate(-12 -18)" style="fill:#0b1a37"/><path d="M849.25,382.21a3.53,3.53,0,0,1-1.2-.83,3.79,3.79,0,0,1-.77-1.27,4.94,4.94,0,0,1,0-3.22,3.47,3.47,0,0,1,.77-1.24,3.35,3.35,0,0,1,1.21-.79,4.19,4.19,0,0,1,1.58-.28,4.13,4.13,0,0,1,1.56.28,3.35,3.35,0,0,1,1.19.79,3.62,3.62,0,0,1,.77,1.24,4.94,4.94,0,0,1,0,3.22,3.62,3.62,0,0,1-.76,1.27,3.53,3.53,0,0,1-1.2.83,3.94,3.94,0,0,1-1.56.3A4,4,0,0,1,849.25,382.21Zm2.48-1.19a1.89,1.89,0,0,0,.69-.57,2.59,2.59,0,0,0,.44-.86,3.66,3.66,0,0,0,.15-1.08,3,3,0,0,0-.59-1.95,2,2,0,0,0-1.58-.7,2,2,0,0,0-1.61.7,3,3,0,0,0-.6,1.95,3.66,3.66,0,0,0,.15,1.08,2.59,2.59,0,0,0,.44.86,1.84,1.84,0,0,0,.7.57,2,2,0,0,0,.92.21A1.89,1.89,0,0,0,851.73,381Z" transform="translate(-12 -18)" style="fill:#0b1a37"/><path d="M856.36,376.56c0-.41,0-.77,0-1.08s-.05-.55-.08-.71h1.44a2.67,2.67,0,0,1,.1.41c0,.21.07.43.1.68a3.48,3.48,0,0,1,.84-.88,1.86,1.86,0,0,1,1.19-.4,2.22,2.22,0,0,1,.61.07l.38.13v1.38a3.75,3.75,0,0,0-.44-.17,2.46,2.46,0,0,0-1.7.14,2.51,2.51,0,0,0-.84.65v5.54h-1.56Z" transform="translate(-12 -18)" style="fill:#0b1a37"/><path d="M863.65,381.94a2.46,2.46,0,0,1-.59-1.84v-4.18h-1.38v-1.15h1.38v-1.7l1.57-.29v2h2v1.15h-2v4.13a1.3,1.3,0,0,0,.28,1,1.22,1.22,0,0,0,.88.27,2.53,2.53,0,0,0,.5,0,2.74,2.74,0,0,0,.39-.1v1.18a3,3,0,0,1-.51.14,5.27,5.27,0,0,1-.74.05A2.49,2.49,0,0,1,863.65,381.94Z" transform="translate(-12 -18)" style="fill:#0b1a37"/><path d="M868.82,382.34a4.1,4.1,0,0,1-1-.39v-1.28a4.26,4.26,0,0,0,1.14.53,4,4,0,0,0,1.2.19,2,2,0,0,0,1.1-.26.89.89,0,0,0,.38-.79.73.73,0,0,0-.15-.48,1.36,1.36,0,0,0-.4-.34,4,4,0,0,0-.59-.27l-.68-.27a4.12,4.12,0,0,1-1.39-.89,1.91,1.91,0,0,1-.5-1.37,2,2,0,0,1,.2-.89,2.11,2.11,0,0,1,.56-.67,2.57,2.57,0,0,1,.86-.43,3.73,3.73,0,0,1,1.09-.15,4.73,4.73,0,0,1,1.26.15,3.67,3.67,0,0,1,.87.34v1.23a3.53,3.53,0,0,0-1-.43,4.19,4.19,0,0,0-1.11-.16,1.56,1.56,0,0,0-.93.24.81.81,0,0,0-.32.67.87.87,0,0,0,.11.44,1.24,1.24,0,0,0,.33.31,2.77,2.77,0,0,0,.49.26l.64.27c.29.13.56.26.82.4a2.7,2.7,0,0,1,.69.47,1.93,1.93,0,0,1,.47.63,2,2,0,0,1,.17.84,2,2,0,0,1-.79,1.66,3.46,3.46,0,0,1-2.19.61A4.92,4.92,0,0,1,868.82,382.34Z" transform="translate(-12 -18)" style="fill:#0b1a37"/><path d="M990.12,372.41h6.43v1.28h-4.73v3.61h4.33v1.28h-4.33v5h-1.7Z" transform="translate(-12 -18)" style="fill:#0b1a37"/><path d="M1000.18,383.61h-1.69v-11.2h1.69Z" transform="translate(-12 -18)" style="fill:#0b1a37"/><path d="M1005.68,383.42a5.14,5.14,0,0,1-1.86-1.13,4.92,4.92,0,0,1-1.15-1.83,7.14,7.14,0,0,1-.39-2.44,6.68,6.68,0,0,1,.41-2.38,5.29,5.29,0,0,1,1.16-1.84,5.14,5.14,0,0,1,1.83-1.19,6.64,6.64,0,0,1,2.42-.43,9.18,9.18,0,0,1,1.87.19,8.66,8.66,0,0,1,1.56.5v1.56a7.09,7.09,0,0,0-1.48-.62,6.33,6.33,0,0,0-1.88-.27,4.66,4.66,0,0,0-1.72.31,3.57,3.57,0,0,0-1.3.88,3.84,3.84,0,0,0-.84,1.41A5.75,5.75,0,0,0,1004,378a5.43,5.43,0,0,0,.3,1.87,3.91,3.91,0,0,0,.84,1.4,3.58,3.58,0,0,0,1.33.87,4.9,4.9,0,0,0,1.77.3,7.07,7.07,0,0,0,1-.08q.51-.09,1-.21v-2.51h-2v-1.2h3.59v4.68a7.52,7.52,0,0,1-1.67.49,10.72,10.72,0,0,1-2,.19A7.15,7.15,0,0,1,1005.68,383.42Z" transform="translate(-12 -18)" style="fill:#0b1a37"/><path d="M1014.2,372.33h1l4.9,6.78,4.88-6.78h1v11.28h-1.65v-7.87l-3.93,5.42h-.6l-3.95-5.42v7.87h-1.63Z" transform="translate(-12 -18)" style="fill:#0b1a37"/><path d="M1032.26,372.34h.85l4.77,11.27h-1.78l-.94-2.26H1030l-.94,2.26h-1.76Zm2.39,7.73-2-5-2.11,5Z" transform="translate(-12 -18)" style="fill:#0b1a37"/><path d="M356.14,234.66a5,5,0,0,1-1.77-1.18,5.16,5.16,0,0,1-1.12-1.83,7,7,0,0,1-.39-2.39,6.46,6.46,0,0,1,.4-2.32,5.35,5.35,0,0,1,1.12-1.84,5.14,5.14,0,0,1,1.77-1.22,6,6,0,0,1,2.32-.44,8.55,8.55,0,0,1,1.71.17,5.11,5.11,0,0,1,1.41.53v1.61a4.62,4.62,0,0,0-1.33-.68,5.12,5.12,0,0,0-1.69-.27,3.91,3.91,0,0,0-1.64.33,3.69,3.69,0,0,0-1.25.92,4.19,4.19,0,0,0-.8,1.42,5.38,5.38,0,0,0-.28,1.79,5.5,5.5,0,0,0,.28,1.83,4.05,4.05,0,0,0,.8,1.41,3.55,3.55,0,0,0,1.26.9,4.13,4.13,0,0,0,1.64.31,4.76,4.76,0,0,0,1.69-.28,6.24,6.24,0,0,0,1.32-.65v1.58a5,5,0,0,1-1.41.53,7.59,7.59,0,0,1-1.68.18A6.53,6.53,0,0,1,356.14,234.66Z" transform="translate(-12 -18)" style="fill:#fff"/><path d="M365.21,234.75a3.53,3.53,0,0,1-1.2-.83,3.65,3.65,0,0,1-.77-1.26,4.63,4.63,0,0,1-.27-1.6,4.68,4.68,0,0,1,.27-1.63,3.56,3.56,0,0,1,.77-1.24,3.39,3.39,0,0,1,1.21-.79,4.18,4.18,0,0,1,1.57-.28,4.05,4.05,0,0,1,1.56.28,3.4,3.4,0,0,1,1.19.79,3.56,3.56,0,0,1,.77,1.24,4.68,4.68,0,0,1,.27,1.63,4.63,4.63,0,0,1-.26,1.6,3.63,3.63,0,0,1-.76,1.26,3.53,3.53,0,0,1-1.2.83,4,4,0,0,1-1.57.31A4,4,0,0,1,365.21,234.75Zm2.48-1.18a2.34,2.34,0,0,0,.69-.57,2.91,2.91,0,0,0,.44-.86,3.71,3.71,0,0,0,.15-1.08,3,3,0,0,0-.59-1.95,2,2,0,0,0-1.59-.71,2,2,0,0,0-1.61.71,2.92,2.92,0,0,0-.6,1.95,3.4,3.4,0,0,0,.16,1.08,2.5,2.5,0,0,0,.44.86,2.11,2.11,0,0,0,.69.57,2,2,0,0,0,.92.21A1.93,1.93,0,0,0,367.69,233.57Z" transform="translate(-12 -18)" style="fill:#fff"/><path d="M372.31,229.1c0-.44,0-.83,0-1.16a5.15,5.15,0,0,0-.07-.63h1.44c0,.07.05.2.1.4a6.08,6.08,0,0,1,.09.77,5.49,5.49,0,0,1,1-.94,2.5,2.5,0,0,1,1.47-.42,2.88,2.88,0,0,1,1,.16,2.12,2.12,0,0,1,.81.5,2.36,2.36,0,0,1,.55.87,3.52,3.52,0,0,1,.21,1.29v4.92h-1.57v-4.73a1.8,1.8,0,0,0-.41-1.35,1.5,1.5,0,0,0-1.06-.38,2,2,0,0,0-1.08.3,3.29,3.29,0,0,0-.89.79v5.37h-1.57Z" transform="translate(-12 -18)" style="fill:#fff"/><path d="M381.54,228.46h-1.29v-1.15h1.29v-1.79a2.27,2.27,0,0,1,.6-1.74,2.37,2.37,0,0,1,1.64-.55,3.24,3.24,0,0,1,.64.06l.47.1v1.17l-.3-.1a1.77,1.77,0,0,0-.49-.06q-1,0-1,1.17v1.74h1.76v1.15h-1.76v6.4h-1.57Zm4.87-2.61a.8.8,0,0,1-.29-.65.86.86,0,0,1,.29-.68,1,1,0,0,1,.72-.25,1.08,1.08,0,0,1,.73.25.86.86,0,0,1,.29.68.8.8,0,0,1-.29.65,1.18,1.18,0,0,1-.73.23A1.13,1.13,0,0,1,386.41,225.85Zm-.05,1.46h1.55v7.55h-1.55Z" transform="translate(-12 -18)" style="fill:#fff"/><path d="M392.29,238.7a6.33,6.33,0,0,1-.83-.19,4.86,4.86,0,0,1-.68-.25,3.51,3.51,0,0,1-.5-.29v-1.36l.47.29c.19.1.4.2.64.3a4.45,4.45,0,0,0,.78.24,4.11,4.11,0,0,0,.89.1,2.18,2.18,0,0,0,2.44-2.5v-.86a3.18,3.18,0,0,1-2.23.8,3.6,3.6,0,0,1-1.47-.28,2.92,2.92,0,0,1-1.08-.77,3.47,3.47,0,0,1-.67-1.21,4.8,4.8,0,0,1-.23-1.55,5.09,5.09,0,0,1,.24-1.59,4,4,0,0,1,.7-1.29,3.28,3.28,0,0,1,1.09-.86,3.18,3.18,0,0,1,1.44-.31,2.93,2.93,0,0,1,1.37.29,4.22,4.22,0,0,1,1,.78,4.67,4.67,0,0,1,.08-.53c0-.15.06-.26.08-.35h1.31c0,.1,0,.3,0,.62s0,.7,0,1.16V235a4.45,4.45,0,0,1-.27,1.61,3.27,3.27,0,0,1-.77,1.17,3.4,3.4,0,0,1-1.23.71,5,5,0,0,1-1.6.24A6.56,6.56,0,0,1,392.29,238.7Zm2.39-5.14a3,3,0,0,0,.82-.62v-3.68l-.26-.27a3.32,3.32,0,0,0-.39-.31,2.55,2.55,0,0,0-.55-.26,2.17,2.17,0,0,0-.71-.1,1.89,1.89,0,0,0-1.59.76,3.35,3.35,0,0,0-.58,2.09,3.11,3.11,0,0,0,.54,2,2,2,0,0,0,1.62.68A2.32,2.32,0,0,0,394.68,233.56Z" transform="translate(-12 -18)" style="fill:#fff"/><line x1="203" y1="91" x2="203" y2="92" style="fill:none;stroke:#fff;stroke-miterlimit:10"/><line x1="203" y1="94" x2="203" y2="169" style="fill:none;stroke:#fff;stroke-miterlimit:10;stroke-dasharray:2,2"/><line x1="203" y1="170" x2="203" y2="171" style="fill:none;stroke:#fff;stroke-miterlimit:10"/><line x1="321" y1="49" x2="250" y2="49" style="fill:none;stroke:#fff;stroke-miterlimit:10;stroke-dasharray:2,2"/><line x1="331.44" y1="76.7" x2="330.76" y2="77.44" style="fill:none;stroke:#fff;stroke-miterlimit:10"/><line x1="329.4" y1="78.93" x2="234.75" y2="182.55" style="fill:none;stroke:#fff;stroke-miterlimit:10;stroke-dasharray:2.019268035888672,2.019268035888672"/><line x1="234.07" y1="183.29" x2="233.39" y2="184.03" style="fill:none;stroke:#fff;stroke-miterlimit:10"/><line x1="324.05" y1="64.74" x2="323.14" y2="65.14" style="fill:none;stroke:#fff;stroke-miterlimit:10"/><line x1="321.31" y1="65.92" x2="70.03" y2="173.06" style="fill:none;stroke:#fff;stroke-miterlimit:10;stroke-dasharray:1.9866833686828613,1.9866833686828613"/><line x1="69.12" y1="173.45" x2="68.2" y2="173.85" style="fill:none;stroke:#fff;stroke-miterlimit:10"/><line x1="42" y1="91" x2="42.14" y2="91.99" style="fill:none;stroke:#fff;stroke-miterlimit:10"/><line x1="42.41" y1="93.99" x2="52.73" y2="169.01" style="fill:none;stroke:#fff;stroke-miterlimit:10;stroke-dasharray:2.0193002223968506,2.0193002223968506"/><line x1="52.86" y1="170.01" x2="53" y2="171" style="fill:none;stroke:#fff;stroke-miterlimit:10"/><line x1="397.28" y1="188.74" x2="398.18" y2="188.3" style="fill:none;stroke:#fff;stroke-miterlimit:10"/><line x1="399.98" y1="187.42" x2="698.2" y2="41.97" style="fill:none;stroke:#fff;stroke-miterlimit:10;stroke-dasharray:2.0048182010650635,2.0048182010650635"/><line x1="699.1" y1="41.53" x2="700" y2="41.1" style="fill:none;stroke:#fff;stroke-miterlimit:10"/><line x1="76.48" y1="247.83" x2="77.46" y2="248.01" style="fill:none;stroke:#fff;stroke-miterlimit:10"/><line x1="79.44" y1="248.36" x2="395.3" y2="304.95" style="fill:none;stroke:#fff;stroke-miterlimit:10;stroke-dasharray:2.0118489265441895,2.0118489265441895"/><polyline points="396.29 305.13 397.28 305.3 398.04 304.65" style="fill:none;stroke:#fff;stroke-miterlimit:10"/><line x1="399.57" y1="303.36" x2="698.47" y2="50.29" style="fill:none;stroke:#fff;stroke-miterlimit:10;stroke-dasharray:2.0032944679260254,2.0032944679260254"/><line x1="699.24" y1="49.65" x2="700" y2="49" style="fill:none;stroke:#fff;stroke-miterlimit:10"/><line x1="405" y1="222.29" x2="405.95" y2="222.59" style="fill:none;stroke:#fff;stroke-miterlimit:10"/><line x1="407.88" y1="223.18" x2="649.37" y2="298.4" style="fill:none;stroke:#fff;stroke-miterlimit:10;stroke-dasharray:2.0154364109039307,2.0154364109039307"/><line x1="650.34" y1="298.7" x2="651.29" y2="299" style="fill:none;stroke:#fff;stroke-miterlimit:10"/><line x1="689.39" y1="299" x2="689.86" y2="298.12" style="fill:none;stroke:#fff;stroke-miterlimit:10"/><line x1="690.81" y1="296.34" x2="812.03" y2="69.77" style="fill:none;stroke:#fff;stroke-miterlimit:10;stroke-dasharray:2.015355110168457,2.015355110168457"/><line x1="812.5" y1="68.88" x2="812.98" y2="68" style="fill:none;stroke:#fff;stroke-miterlimit:10"/><line x1="835.6" y1="68" x2="835.6" y2="69" style="fill:none;stroke:#fff;stroke-miterlimit:10"/><line x1="835.6" y1="70.99" x2="835.6" y2="297" style="fill:none;stroke:#fff;stroke-miterlimit:10;stroke-dasharray:1.9913043975830078,1.9913043975830078"/><line x1="835.6" y1="298" x2="835.6" y2="299" style="fill:none;stroke:#fff;stroke-miterlimit:10"/><line x1="870.29" y1="68" x2="870.79" y2="68.86" style="fill:none;stroke:#fff;stroke-miterlimit:10"/><line x1="871.8" y1="70.59" x2="1004.71" y2="297.28" style="fill:none;stroke:#fff;stroke-miterlimit:10;stroke-dasharray:1.9983209371566772,1.9983209371566772"/><line x1="1005.22" y1="298.14" x2="1005.72" y2="299" style="fill:none;stroke:#fff;stroke-miterlimit:10"/><line x1="68.2" y1="252.15" x2="69.1" y2="252.59" style="fill:none;stroke:#fff;stroke-miterlimit:10"/><line x1="70.9" y1="253.46" x2="593.2" y2="506.13" style="fill:none;stroke:#fff;stroke-miterlimit:10;stroke-dasharray:2.004152536392212,2.004152536392212"/><line x1="594.1" y1="506.56" x2="595" y2="507" style="fill:none;stroke:#fff;stroke-miterlimit:10"/></svg>