<svg id="Layer_1" data-name="Layer 1" xmlns="http://www.w3.org/2000/svg" viewBox="0 0 60 23"><g id="Components_Main-Navigation_Large" data-name="Components/Main-Navigation/Large"><g id="Prism-Logotype"><path id="Fill-1" d="M14.87,12.68v5.61h3.2V12.45a3.25,3.25,0,0,1,3.61-3.61v-3c-4.42,0-6.81,2.39-6.81,6.81" transform="translate(0 -0.1)" style="fill:#fff;fill-rule:evenodd"/><g id="Group-5"><polygon id="Fill-2" points="23.77 18.18 26.96 18.18 26.96 5.77 23.77 5.77 23.77 18.18" style="fill:#fff;fill-rule:evenodd"/><path id="Fill-4" d="M6.58,15.56A3.25,3.25,0,0,1,3.2,12.13,3.33,3.33,0,0,1,6.63,8.61a3.23,3.23,0,0,1,3.31,3.47A3.24,3.24,0,0,1,6.58,15.56Zm0-9.92C2.66,5.64,0,8.21,0,12.38V23.11H3.2V17.6a6.76,6.76,0,0,0,3.43.92,6.15,6.15,0,0,0,6.51-6.44A6.15,6.15,0,0,0,6.63,5.64Z" transform="translate(0 -0.1)" style="fill:#fff;fill-rule:evenodd"/></g><path id="Fill-6" d="M54.37,5.64a5.51,5.51,0,0,0-4,1.57,5.52,5.52,0,0,0-4-1.57c-3.55,0-5.63,2-5.63,5.63v7h3.2v-6.9c0-1.76.85-2.78,2.43-2.78s2.43,1,2.43,2.89v6.79h3.2V11.5c0-1.87.86-2.89,2.43-2.89s2.43,1,2.43,2.78v6.9H60v-7c0-3.66-2.08-5.63-5.63-5.63" transform="translate(0 -0.1)" style="fill:#fff;fill-rule:evenodd"/><path id="Fill-7" d="M25.37.1a2.1,2.1,0,0,0-2.11,2.09A2.09,2.09,0,1,0,25.37.1" transform="translate(0 -0.1)" style="fill:#0382ff;fill-rule:evenodd"/><path id="Fill-8" d="M34.89,10.71c-1.11-.3-2.32-.55-2.32-1.39,0-.69.74-1,1.48-1a3.07,3.07,0,0,1,2.3,1l2-1.8a5.37,5.37,0,0,0-4.34-1.88c-2.47,0-4.63,1.41-4.63,3.71,0,1.92,1.21,3.08,3.64,3.75,1.25.35,2.55.7,2.55,1.51s-.75,1.11-1.72,1.11a3.49,3.49,0,0,1-2.8-1.3l-2.16,1.9a6,6,0,0,0,4.85,2.15c2.71,0,5-1.27,5-3.91,0-2.09-1.34-3.15-3.91-3.85" transform="translate(0 -0.1)" style="fill:#fff;fill-rule:evenodd"/></g></g></svg>